<?xml version="1.0"?>
<svg xmlns="http://www.w3.org/2000/svg" height="512px" viewBox="0 0 512 512" width="512px" class=""><g><path d="m512 256c0 141.386719-114.613281 256-256 256s-256-114.613281-256-256 114.613281-256 256-256 256 114.613281 256 256zm0 0" fill="#ffe000" data-original="#FFE000" style="fill:#687E8F" class="" data-old_color="#ffe000"/><path d="m512 256c0-.125-.003906-.25-.003906-.375l-193.882813-193.882812-6.625 95.316406-97.058593-97.058594-20.234376 157.496094-88.195312 29.175781 116.246094 116.246094-71.949219 66.578125 81.34375 81.34375c8.019531.757812 16.140625 1.160156 24.359375 1.160156 141.386719 0 256-114.613281 256-256zm0 0" fill="#ffc200" data-original="#FFC200" class="" style="fill:#435465" data-old_color="#ffc200"/><path d="m236.691406 265.738281h-63.722656l-3.917969-25.863281c-3.792969-25.035156-3.046875-50.546875 2.199219-75.316406l20.820312-98.289063c2.921876-13.789062 22.601563-13.789062 25.519532 0l20.820312 98.289063c5.246094 24.769531 5.992188 50.28125 2.199219 75.316406zm0 0" fill="#fff" data-original="#FFF" style="fill:#FFF" class=""/><path d="m225.636719 250.527344h-41.613281l-2.558594-16.890625c-2.476563-16.347657-1.988282-33.003907 1.4375-49.179688l13.59375-64.183593c1.910156-9.003907 14.761718-9.003907 16.667968 0l13.59375 64.183593c3.425782 16.175781 3.914063 32.832031 1.4375 49.179688zm0 0" fill="#ffb0b0" data-original="#FFB0B0" style="fill:#FFB0B0" class=""/><path d="m339.03125 265.738281h-63.722656l-3.917969-25.863281c-3.792969-25.035156-3.046875-50.546875 2.199219-75.316406l20.820312-98.289063c2.917969-13.789062 22.597656-13.789062 25.519532 0l20.820312 98.289063c5.246094 24.769531 5.992188 50.28125 2.199219 75.316406zm0 0" fill="#e9edf5" data-original="#E9EDF5" class="" style="fill:#E9EDF5"/><path d="m327.976562 250.527344h-41.613281l-2.558593-16.890625c-2.476563-16.347657-1.988282-33.003907 1.4375-49.179688l13.597656-64.183593c1.90625-9.003907 14.757812-9.003907 16.664062 0l13.59375 64.183593c3.425782 16.175781 3.914063 32.832031 1.4375 49.179688zm0 0" fill="#ff9696" data-original="#FF9696" class="" style="fill:#FF9696"/><path d="m361.703125 429.496094c-70.46875 12.320312-140.9375 12.320312-211.40625 0 13.390625-64.824219 13.390625-129.652344 0-194.476563 70.46875-12.320312 140.9375-12.320312 211.40625 0-13.390625 64.824219-13.390625 129.652344 0 194.476563zm0 0" fill="#555a66" data-original="#555A66" class="" style="fill:#555A66"/><path d="m361.703125 235.019531c-35.296875-6.171875-70.597656-9.25-105.894531-9.238281v212.953125c35.296875.011719 70.597656-3.066406 105.894531-9.238281-13.390625-64.824219-13.390625-129.652344 0-194.476563zm0 0" fill="#333940" data-original="#333940" class="" style="fill:#333940" data-old_color="#333940"/><path d="m150.296875 235.019531c3.296875 15.960938 5.777344 31.921875 7.449219 47.886719 65.503906 9.519531 131.003906 9.519531 196.507812 0 1.671875-15.964844 4.152344-31.925781 7.449219-47.886719-70.46875-12.320312-140.9375-12.320312-211.40625 0zm0 0" fill="#ff583e" data-original="#FF583E" class="" style="fill:#5E7C9D" data-old_color="#ff583e"/><path d="m255.808594 225.78125v64.261719c32.816406.007812 65.628906-2.367188 98.445312-7.136719 1.671875-15.964844 4.152344-31.925781 7.449219-47.886719-35.296875-6.171875-70.597656-9.25-105.894531-9.238281zm0 0" fill="#ea1d13" data-original="#EA1D13" class="active-path" style="fill:#2B425C" data-old_color="#ea1d13"/><g fill="#333940"><path d="m406 246.671875c-99.5 14.160156-200.5 14.160156-300 0 1.570312-11.039063 3.140625-22.078125 4.714844-33.117187 96.371094 13.714843 194.199218 13.714843 290.570312 0 1.574219 11.039062 3.144532 22.078124 4.714844 33.117187zm0 0" data-original="#333940" class="" style="fill:#333940" data-old_color="#333940"/><path d="m406 246.671875c-1.570312-11.039063-3.140625-22.078125-4.714844-33.117187-48.246094 6.867187-96.859375 10.292968-145.476562 10.285156v33.449218c50.1875.011719 100.378906-3.527343 150.191406-10.617187zm0 0" data-original="#333940" class="" style="fill:#333940" data-old_color="#333940"/></g></g> </svg>
