<svg id="Capa_1" enable-background="new 0 0 512 512" height="512" viewBox="0 0 512 512" width="512" xmlns="http://www.w3.org/2000/svg"><path d="m334.241 146.974c-8.478-8.478-13.241-19.977-13.241-31.967 0-16.297-13.212-29.509-29.509-29.509h-3.557c-6.769 0-12.816 3.843-16.129 9.746-3.415 6.084-9.927 10.194-17.4 10.194s-13.986-4.111-17.4-10.194c-3.313-5.903-9.36-9.746-16.129-9.746h-.365c-16.299 0-29.511 13.212-29.511 29.509 0 11.99-4.763 23.489-13.241 31.967l-16.521 16.522 3.122 42.391c2.644 35.907 36.426 63.568 65.39 75.227 2.25 4.882 7.144 8.038 12.557 8.038h27.386c5.413 0 10.307-3.156 12.557-8.038 28.964-11.658 62.745-39.319 65.39-75.227l3.122-42.391z" fill="#ffece4"/><path d="m293.655 7.5h-39.503c-23.938 0-45.854 13.428-56.723 34.757l-2.288 4.489c-24.21 0-43.154 20.859-40.829 44.957l6.925 71.793 16.521-16.522c8.478-8.478 13.241-19.977 13.241-31.967 0-16.297 13.212-29.509 29.509-29.509h.365c6.769 0 12.816 3.843 16.129 9.746 3.415 6.084 9.927 10.194 17.4 10.194s13.986-4.111 17.4-10.194c3.313-5.903 9.36-9.746 16.129-9.746h3.557c16.297 0 29.509 13.212 29.509 29.509 0 11.99 4.763 23.489 13.241 31.967l16.521 16.522 8.12-84.174c3.717-38.499-26.546-71.822-65.224-71.822z" fill="#f9f48e"/><path d="m334.241 146.974c-8.478-8.478-13.241-19.977-13.241-31.967 0-6.58-2.154-12.657-5.795-17.565l-4.443 46.053-3.122 42.391c-2.645 35.908-36.426 63.568-65.39 75.227-2.25 4.882-7.144 8.038-12.557 8.038h-22.521c7.439 4.948 15.166 8.979 22.577 11.962 2.25 4.882 7.144 8.038 12.557 8.038h27.386c5.413 0 10.307-3.156 12.557-8.038 28.964-11.658 62.745-39.319 65.39-75.227l3.122-42.391z" fill="#ffddce"/><path d="m301.194 7.927c12.546 13.228 19.595 31.629 17.689 51.395l-3.677 38.121c3.641 4.908 5.795 10.984 5.795 17.564 0 11.99 4.763 23.489 13.241 31.967l16.521 16.521 8.12-84.174c3.468-35.958-22.705-67.401-57.689-71.394z" fill="#f6e738"/><path d="m474.289 417.836c3.423-11.519 5.162-23.472 5.162-35.488v-9.861c0-24.043-13.17-44.592-32.282-55.487l.08.048h-52.042c-26.916 0-53.69 3.913-79.48 11.617.008-.007.016-.015.023-.022-15.608 14.686-36.628 23.685-59.75 23.685-23.11 0-44.121-8.99-59.726-23.662-25.79-7.704-52.564-11.617-79.48-11.617h-52.042l.084-.051c-19.115 10.894-32.286 31.445-32.286 55.489v9.861c0 12.016 1.739 23.97 5.162 35.488l2.481 8.348c-3.31 9.537-5 19.562-5 29.658v48.658h441.615v-48.658c0-10.096-1.69-20.12-5-29.658z" fill="#e28086"/><path d="m198.328 330.536c-.694-.613-1.379-1.236-2.054-1.87-5.721-1.709-11.491-3.231-17.3-4.566 6.099 2.864 12.583 5.042 19.354 6.436z" fill="#dd636e"/><path d="m474.289 417.836c3.423-11.519 5.162-23.472 5.162-35.489v-9.861c0-24.043-13.17-44.592-32.282-55.487l.08.048h-18.523c6.751 10.078 10.725 22.231 10.725 35.439v9.861c0 12.017-1.739 23.97-5.162 35.489l-2.481 8.348c3.31 9.537 5 19.562 5 29.658v10.85c0 20.881-16.927 37.808-37.808 37.808h-363.807v20h441.615v-48.658c0-10.096-1.69-20.12-5-29.658z" fill="#dd636e"/><path d="m197.975 262.424-14.103-.001c-14.247-.001-27.91 5.657-37.984 15.731l-4.624 4.624-4.19.001c-18.772.005-37.172 5.229-53.147 15.087l-20.95 12.929c-2.897 1.788-1.63 6.253 1.774 6.253h52.042c26.916 0 53.69 3.913 79.48 11.617-2.647-2.489-5.138-5.141-7.458-7.94-7.157-8.637-2.121-21.791 8.966-23.497 4.602-.708 7.999-4.668 7.999-9.324v-19.692c-2.652-1.815-5.264-3.746-7.805-5.788z" fill="#a2aae2"/><path d="m314.026 262.424 14.103-.001c14.247-.001 27.91 5.657 37.984 15.731l4.624 4.624 4.19.001c18.772.005 37.172 5.229 53.147 15.087l20.95 12.929c2.897 1.788 1.63 6.253-1.774 6.253h-52.042c-26.916 0-53.69 3.913-79.48 11.617 2.647-2.489 5.138-5.141 7.458-7.94 7.157-8.637 2.121-21.791-8.966-23.497-4.602-.708-7.999-4.668-7.999-9.324v-19.692c2.652-1.815 5.263-3.746 7.805-5.788z" fill="#a2aae2"/><g fill="#ffece4"><path d="m282.251 281.113c-2.25 4.882-7.144 8.038-12.557 8.038h-27.386c-5.413 0-10.307-3.156-12.557-8.038-7.871-3.168-16.098-7.519-23.959-12.895-.003-.002-.007-.005-.01-.007v19.692c0 4.564-3.266 8.474-7.758 9.287-11.175 2.022-16.072 15.39-8.755 24.076 15.998 18.993 39.956 31.061 66.733 31.061s50.735-12.068 66.733-31.061c7.316-8.686 2.42-22.054-8.755-24.076-4.491-.813-7.758-4.723-7.758-9.287v-19.692c-7.866 5.38-16.097 9.733-23.971 12.902z"/><path d="m369.641 132.176h-15.857l-3.021 31.32-2.307 31.32h3.053c21.667 0 39.232-17.565 39.232-39.232v-2.308c0-11.654-9.447-21.1-21.1-21.1z"/><path d="m142.359 132.176h15.857l3.021 31.32 2.307 31.32h-3.053c-21.667 0-39.232-17.565-39.232-39.232v-2.308c.001-11.654 9.447-21.1 21.1-21.1z"/></g><path d="m261.223 252.508h-10.446c-9.35 0-17.646-5.995-20.58-14.873l-3.471-10.502h58.548l-3.471 10.502c-2.934 8.878-11.23 14.873-20.58 14.873z" fill="#fff"/><path d="m256 504.5 49.672-86.034h-99.343z" fill="#f9f48e"/><path d="m244.453 484.5 11.547 20 11.547-20z" fill="#f6e738"/><path d="m32.33 426.057c-3.079 9.639-4.638 19.646-4.638 29.785v48.658c0 4.142 3.358 7.5 7.5 7.5h441.615c4.142 0 7.5-3.358 7.5-7.5v-48.658c0-10.139-1.559-20.146-4.638-29.785l1.809-6.084c5.946-20.008 5.473-34.128 5.473-47.485 0-22.701-10.9-43.978-28.922-57.339.6-4.244-1.322-8.423-5.068-10.735l-20.949-12.928c-17.156-10.588-36.554-16.206-58.168-16.206l-2.428-2.428c-10.478-10.477-24.084-16.688-38.712-17.761 12.35-13.721 21.065-30.293 22.417-48.652l.316-4.286c23.937-2.001 42.804-22.122 42.804-46.568v-2.308c0-15.77-12.83-28.6-28.6-28.6h-7.599l4.305-44.634c.398-4.123-2.622-7.788-6.745-8.186-4.134-.391-7.788 2.623-8.186 6.745-1.007 10.437 2.068-21.436-6.593 68.349l-5.279-5.28c-7.122-7.122-11.044-16.592-11.044-26.664 0-20.407-16.602-37.009-37.009-37.009h-3.557c-9.284 0-17.97 5.202-22.669 13.575-4.755 8.472-16.962 8.477-21.721 0-4.505-8.027-12.884-13.575-23.035-13.575-20.407 0-37.009 16.603-37.009 37.009 0 10.073-3.922 19.542-11.044 26.664l-5.28 5.279c-1.004-10.411-4.395-45.553-5.399-55.968-1.818-18.844 12.179-35.041 30.385-36.609l8.902 8.902c2.929 2.929 7.678 2.929 10.606 0 2.929-2.929 2.929-7.678 0-10.606l-7.372-7.372c9.7-18.699 28.764-30.297 49.854-30.297h39.503c22.563 0 43.262 13.253 52.733 33.765 1.736 3.76 6.191 5.401 9.953 3.665 3.761-1.736 5.401-6.193 3.665-9.953-11.915-25.804-37.959-42.477-66.351-42.477h-39.503c-25.863 0-50.604 13.759-63.724 39.477-26.737 2.623-46.141 26.405-43.581 52.946l3.111 32.253h-7.599c-15.77 0-28.6 12.83-28.6 28.6v2.308c0 24.446 18.867 44.567 42.804 46.568l.316 4.286c1.352 18.358 10.067 34.931 22.417 48.652-14.628 1.072-28.235 7.284-38.712 17.761l-2.428 2.428c-7.96.004-15.348.595-23.844 2.416-4.05.868-6.63 4.855-5.762 8.905.866 4.043 4.846 6.63 8.905 5.762 7.587-1.626 13.977-2.081 20.703-2.082l7.654 7.654c2.929 2.929 7.678 2.929 10.606 0 2.929-2.929 2.929-7.678 0-10.606l-4.54-4.541c8.645-8.302 19.966-12.862 31.989-12.862.314 0-1.924 0 11.504.001.961.742 1.931 1.471 2.91 2.185v15.796c0 .938-.67 1.739-1.593 1.906-13.05 2.361-20.367 14.959-17.934 26.549-20.322-4.525-41.085-6.812-61.96-6.812h-37.515l8.587-5.299c3.525-2.175 4.619-6.796 2.444-10.321s-6.796-4.621-10.321-2.444l-20.951 12.928c-3.745 2.312-5.667 6.491-5.067 10.735-18.022 13.361-28.922 34.638-28.922 57.34 0 13.324-.48 27.456 5.473 47.486zm223.67 35.943c4.142 0 7.5-3.358 7.5-7.5v-28.534h29.181l-36.681 63.534-36.681-63.534h29.181v28.534c0 4.142 3.358 7.5 7.5 7.5zm176.722-152.452h-37.515c-20.875 0-41.637 2.287-61.96 6.812 2.433-11.584-4.878-24.187-17.934-26.549-.923-.167-1.593-.969-1.593-1.906v-15.796c.979-.714 1.949-1.443 2.91-2.185l11.499-.001c11.769 0 23.163 4.384 31.993 12.862l-4.541 4.541c-2.929 2.929-2.929 7.677 0 10.606 2.928 2.929 7.677 2.929 10.606 0l7.654-7.654c18.531.004 35.239 4.68 50.293 13.97zm-63.081-169.872c7.499 0 13.6 6.101 13.6 13.6v2.308c0 15.779-11.577 28.905-26.682 31.33 2.016-27.367 1.068-16.459 4.037-47.238zm-240.882 15.907v-2.308c0-7.499 6.101-13.6 13.6-13.6h9.046c2.967 30.754 2.021 19.87 4.036 47.238-15.105-2.426-26.682-15.551-26.682-31.33zm40.211 10.787 14.093-14.093c9.955-9.955 15.438-23.191 15.438-37.271 0-11.694 9.296-22.009 22.375-22.009 3.925 0 7.51 2.212 9.589 5.917 4.855 8.65 14.028 14.023 23.94 14.023 9.911 0 19.085-5.374 23.941-14.024 2.079-3.705 5.664-5.917 9.588-5.917h3.557c12.136 0 22.009 9.874 22.009 22.009 0 14.079 5.482 27.315 15.438 37.271l14.093 14.093c-.384 5.219 1.215-16.491-2.87 38.966-2.291 31.104-32.034 57.277-60.71 68.82-1.775.714-3.21 2.081-4.011 3.818-1.032 2.239-3.29 3.677-5.746 3.677h-27.386c-2.461 0-4.717-1.443-5.746-3.677-.801-1.738-2.236-3.104-4.011-3.818-28.569-11.511-58.412-37.618-60.71-68.82-4.085-55.45-2.487-33.749-2.871-38.965zm30.388 138.201c8.067-1.459 13.923-8.469 13.923-16.667v-6.298c3.715 2.025 7.469 3.845 11.215 5.446 3.355 5.084 8.769 8.518 14.805 9.384 2.124.305 1.039.214 30.393.214 7.309 0 13.959-3.762 17.812-9.598 3.745-1.601 7.5-3.421 11.215-5.446v6.298c0 8.198 5.855 15.208 13.922 16.667 5.522.999 7.949 7.597 4.354 11.864-8.694 10.323-20.022 18.5-33.184 23.396l11.47-18.681c2.167-3.53 1.063-8.148-2.467-10.316-3.53-2.167-8.148-1.063-10.316 2.467l-15.629 25.456c-4.978 8.109-16.746 8.131-21.738 0l-15.629-25.456c-2.168-3.529-6.786-4.636-10.316-2.467-3.53 2.167-4.634 6.786-2.467 10.316l11.47 18.681c-12.498-4.65-24.031-12.529-33.185-23.396-3.601-4.273-1.161-10.866 4.352-11.864zm-159.309 67.915c0-19.514 10.202-37.697 26.76-47.938h49.985c25.629 0 51.079 3.638 75.674 10.814 36.045 32.633 91.05 32.606 127.064 0 24.596-7.176 50.046-10.815 75.675-10.815h49.985c16.558 10.241 26.76 28.425 26.76 47.939v9.86c0 18.487-3.966 30.373-7.333 41.7-.447 1.505-.411 3.112.104 4.596 3.042 8.767 4.585 17.918 4.585 27.199v41.159h-43.673v-31.076c0-13.166 6.251-25.792 16.721-33.775 3.294-2.512 3.928-7.218 1.417-10.512s-7.219-3.927-10.512-1.417c-14.167 10.803-22.626 27.888-22.626 45.704v31.076h-27.345c6.605-7.616 10.606-17.548 10.606-28.396v-18.419c0-4.142-3.358-7.5-7.5-7.5s-7.5 3.358-7.5 7.5v18.419c0 15.658-12.739 28.396-28.396 28.396-7.198 0-61.047 0-81.508 0l43.176-74.784c2.877-4.983-.716-11.25-6.495-11.25h-42.173v-9.556c0-8.948 7.28-16.229 16.229-16.229h37.432c4.142 0 7.5-3.358 7.5-7.5s-3.358-7.5-7.5-7.5h-37.432c-9.485 0-17.996 4.251-23.729 10.948-5.732-6.697-14.243-10.948-23.729-10.948h-37.431c-4.142 0-7.5 3.358-7.5 7.5s3.358 7.5 7.5 7.5h37.432c8.948 0 16.229 7.28 16.229 16.229v9.556h-42.171c-5.754 0-9.385 6.245-6.495 11.25l43.175 74.784c-13.087 0-58.959 0-81.508 0-15.658 0-28.396-12.739-28.396-28.396v-67.183c0-9.05 7.369-16.239 16.229-16.239 4.142 0 7.5-3.358 7.5-7.5s-3.358-7.5-7.5-7.5c-11.981 0-22.407 6.782-27.642 16.708l-22.044-22.044c-2.928-2.93-7.677-2.929-10.606 0s-2.929 7.678 0 10.606l29.064 29.065v64.086c0 10.849 4.002 20.78 10.606 28.396h-27.345v-31.076c0-17.816-8.458-34.901-22.626-45.704-3.293-2.509-8-1.877-10.512 1.417-2.511 3.294-1.877 8 1.417 10.512 10.47 7.983 16.721 20.609 16.721 33.775v31.077h-43.675v-41.158c0-9.281 1.543-18.432 4.585-27.199.515-1.483.551-3.091.104-4.596l-2.481-8.349c-5.339-17.96-4.852-30.494-4.852-43.212z"/><path d="m205.712 159.625h37.692c4.142 0 7.5-3.358 7.5-7.5s-3.358-7.5-7.5-7.5h-37.692c-4.142 0-7.5 3.358-7.5 7.5s3.358 7.5 7.5 7.5z"/><path d="m248.5 202.134c0 4.142 3.358 7.5 7.5 7.5 11.081 0 20.096-9.015 20.096-20.096v-24.817c0-2.81 2.286-5.096 5.096-5.096h25.097c4.142 0 7.5-3.358 7.5-7.5s-3.358-7.5-7.5-7.5h-25.097c-11.081 0-20.096 9.015-20.096 20.096v24.817c0 2.81-2.286 5.096-5.096 5.096-4.142 0-7.5 3.358-7.5 7.5z"/><path d="m285.275 219.634h-58.549c-5.104 0-8.725 5.001-7.121 9.854l3.472 10.501c3.958 11.974 15.089 20.019 27.701 20.019h10.446c12.611 0 23.743-8.045 27.701-20.019l3.472-10.502c1.6-4.845-2.012-9.853-7.122-9.853zm-10.593 15.648c-1.923 5.817-7.332 9.726-13.458 9.726h-10.446c-6.127 0-11.536-3.909-13.458-9.727l-.214-.648h37.792z"/><path d="m362.667 385.182c8.874 0 16.229 7.203 16.229 16.239v14.763c0 4.142 3.358 7.5 7.5 7.5s7.5-3.358 7.5-7.5v-11.667l29.064-29.065c2.929-2.929 2.929-7.678 0-10.606-2.929-2.929-7.678-2.929-10.606 0l-22.044 22.044c-5.235-9.926-15.662-16.708-27.642-16.708-4.142 0-7.5 3.358-7.5 7.5s3.357 7.5 7.499 7.5z"/></svg>