<svg id="Capa_1" enable-background="new 0 0 512 512" height="512" viewBox="0 0 512 512" width="512" xmlns="http://www.w3.org/2000/svg"><path d="m504.5 504.5v-129.954c0-31.952-25.902-57.854-57.854-57.854h-10.858l-22.173-170.724c-10.286-79.201-77.749-138.468-157.615-138.468s-147.329 59.267-157.615 138.468l-22.173 170.724h-10.858c-31.952 0-57.854 25.902-57.854 57.854v129.954z" fill="#f1f1f4"/><path d="m373.824 127.575 20.566 158.35c.8 6.159 6.046 10.767 12.256 10.767 9.93 0 19.276 2.502 27.442 6.91l-20.473-157.634c-8.076-62.185-51.4-112.081-108.3-130.651 36.602 25.193 62.431 65.46 68.509 112.258z" fill="#dfdde2"/><path d="m450.508 316.819c8.72 10.129 13.992 23.312 13.992 37.727v65.117c0 35.808-29.028 64.837-64.837 64.837h-392.163v20h497v-129.954c0-30.654-23.841-55.74-53.992-57.727z" fill="#dfdde2"/><g fill="#665e66"><ellipse cx="201.053" cy="164.495" rx="27.98" ry="37.639"/><ellipse cx="310.201" cy="164.495" rx="27.98" ry="37.639"/><ellipse cx="256" cy="288.976" rx="41.59" ry="61.317"/></g><path d="m201.053 119.356c-19.564 0-35.48 20.249-35.48 45.139s15.916 45.139 35.48 45.139 35.48-20.249 35.48-45.139-15.916-45.139-35.48-45.139zm0 75.278c-11.101 0-20.48-13.802-20.48-30.139s9.379-30.139 20.48-30.139 20.48 13.802 20.48 30.139-9.378 30.139-20.48 30.139z"/><path d="m310.201 209.634c19.564 0 35.48-20.249 35.48-45.139s-15.916-45.139-35.48-45.139-35.48 20.249-35.48 45.139 15.916 45.139 35.48 45.139zm0-75.278c11.101 0 20.48 13.802 20.48 30.139s-9.379 30.139-20.48 30.139-20.48-13.802-20.48-30.139 9.379-30.139 20.48-30.139z"/><path d="m446.646 309.192h-4.269l-21.325-164.19c-10.759-82.847-81.351-145.002-165.052-145.002-83.545 0-154.273 62.001-165.052 145.002l-12.258 94.374c-.534 4.107 2.364 7.87 6.472 8.403 4.109.529 7.87-2.364 8.403-6.472l12.257-94.374c9.791-75.381 74.023-131.933 150.178-131.933 76.014 0 140.368 56.411 150.177 131.934l21.145 162.804c-32.052 4.164-56.888 31.64-56.888 64.808v41.228c0 4.142 3.358 7.5 7.5 7.5s7.5-3.358 7.5-7.5v-41.228c0-27.765 22.589-50.354 50.354-50.354h10.857c27.765 0 50.354 22.589 50.354 50.354v122.454h-49.093v-63.89c0-4.142-3.358-7.5-7.5-7.5s-7.5 3.358-7.5 7.5v63.89h-92.405l-9.621-86.166c-.46-4.117-4.167-7.085-8.286-6.622-4.116.459-7.081 4.169-6.621 8.286l9.435 84.502h-61.908v-46.483c0-4.142-3.358-7.5-7.5-7.5s-7.5 3.358-7.5 7.5v46.483h-61.908l9.436-84.501c.46-4.117-2.505-7.827-6.621-8.286-4.118-.464-7.826 2.504-8.286 6.621l-9.622 86.166h-92.405v-63.89c0-4.142-3.358-7.5-7.5-7.5s-7.5 3.358-7.5 7.5v63.89h-49.094v-122.454c0-27.765 22.589-50.354 50.354-50.354h10.857c27.765 0 50.354 22.589 50.354 50.354v99.954c0 4.142 3.358 7.5 7.5 7.5s7.5-3.358 7.5-7.5v-99.954c0-33.168-24.836-60.644-56.888-64.808l4.273-32.903c.534-4.107-2.364-7.87-6.472-8.403-4.111-.534-7.87 2.364-8.403 6.472l-4.453 34.288h-4.269c-36.035 0-65.353 29.318-65.353 65.354v129.954c0 4.142 3.358 7.5 7.5 7.5h497c4.142 0 7.5-3.358 7.5-7.5v-129.954c0-36.036-29.318-65.354-65.354-65.354z"/><path d="m385.434 474.5v-23.726c0-4.142-3.358-7.5-7.5-7.5s-7.5 3.358-7.5 7.5v23.726c0 4.142 3.358 7.5 7.5 7.5s7.5-3.358 7.5-7.5z"/><path d="m220.385 241.409c-17.971 26.494-17.981 68.626 0 95.135 19.172 28.267 51.825 28.411 71.112.175 2.336-3.42 1.458-8.087-1.962-10.423-3.422-2.338-8.088-1.457-10.423 1.962-6.403 9.373-14.61 14.535-23.11 14.535-18.479 0-34.09-24.645-34.09-53.817s15.611-53.817 34.09-53.817 34.09 24.645 34.09 53.817c0 2.971-.158 5.951-.47 8.857-.442 4.118 2.538 7.815 6.656 8.258 4.116.447 7.816-2.538 8.258-6.656 2.134-19.865-1.795-41.627-12.918-58.026-19.132-28.204-51.891-28.517-71.233 0z"/></svg>