<svg height="512" viewBox="0 0 512 512" width="512" xmlns="http://www.w3.org/2000/svg"><g><g><g><path d="m192 240v75.87a71.92 71.92 0 0 1 -32-59.87v-72z" fill="#ffdaaa"/><path d="m352 184v72a71.92 71.92 0 0 1 -32 59.87v-75.87z" fill="#ffdaaa"/><path d="m480 496h-448l2.75-73.63a80.021 80.021 0 0 1 60.44-56.31l103.94-21.88 56.87 79.82 56-80 104.81 22.06a80.021 80.021 0 0 1 60.44 56.31z" fill="#e0e0e2"/><path d="m160 192v64h-12a19.994 19.994 0 0 1 -20-20v-24a19.994 19.994 0 0 1 20-20z" fill="#ffdaaa"/><path d="m384 212v24a19.994 19.994 0 0 1 -20 20h-12v-64h12a19.994 19.994 0 0 1 20 20z" fill="#ffdaaa"/><path d="m144 152h224v32h-224z" fill="#acabb1"/><path d="m312 328v16l-56 80-56.87-79.82.87-.18v-16z" fill="#ffdaaa"/><path d="m200 344-.87.18-.13-.18z" fill="#ffdaaa"/><path d="m304 440h64v56h-64z" fill="#acabb1"/><path d="m172 16h168a20 20 0 0 1 20 20v116a0 0 0 0 1 0 0h-208a0 0 0 0 1 0 0v-116a20 20 0 0 1 20-20z" fill="#e0e0e2"/></g><g><path d="m352 184-32 56h-128l-32-56z" fill="#ffdaaa"/><path d="m192 240h128v88h-128z" fill="#e0e0e2"/></g></g><g><path d="m485.24 422.07a7.683 7.683 0 0 0 -.3-1.9 87.824 87.824 0 0 0 -66.48-61.94l-98.46-20.72v-1.51a8 8 0 0 0 8-8v-8.01a79.926 79.926 0 0 0 31.6-55.99h4.4a28.031 28.031 0 0 0 28-28v-24a28.034 28.034 0 0 0 -16.41-25.48 8.065 8.065 0 0 0 .41-2.52v-32a8 8 0 0 0 -8-8v-108a28.031 28.031 0 0 0 -28-28h-168a28.031 28.031 0 0 0 -28 28v108a8 8 0 0 0 -8 8v32a8.065 8.065 0 0 0 .41 2.52 28.034 28.034 0 0 0 -16.41 25.48v24a28.031 28.031 0 0 0 28 28h4.4a79.926 79.926 0 0 0 31.6 55.99v8.01a8 8 0 0 0 8 8v1.51l-98.46 20.72a87.824 87.824 0 0 0 -66.48 61.94 7.683 7.683 0 0 0 -.3 1.9l-2.75 73.63a8 8 0 0 0 7.99 8.3h448a8 8 0 0 0 7.99-8.3zm-141.24-166.07a63.9 63.9 0 0 1 -16 42.33v-56.2l16-28zm32-44v24a12.01 12.01 0 0 1 -12 12h-4v-48h4a12.01 12.01 0 0 1 12 12zm-216-176a12.01 12.01 0 0 1 12-12h44v32a8 8 0 0 0 16 0v-32h16v32a8 8 0 0 0 16 0v-32h16v32a8 8 0 0 0 16 0v-32h44a12.01 12.01 0 0 1 12 12v108h-192zm-8 212h-4a12.01 12.01 0 0 1 -12-12v-24a12.01 12.01 0 0 1 12-12h4zm0-72v-16h208v16zm32 122.33a63.9 63.9 0 0 1 -16-42.33v-41.87l16 28zm-10.21-106.33h164.42l-22.85 40h-118.72zm26.21 128v-72h112v72zm104 16v5.48l-48.06 68.65-47.94-67.29v-6.84zm56 152h-48v-40h48zm56 0v-32a8 8 0 0 0 -16 0v32h-24v-48a8 8 0 0 0 -8-8h-64a8 8 0 0 0 -8 8v48h-184v-32a8 8 0 0 0 -16 0v32h-55.7l2.41-64.34a71.856 71.856 0 0 1 54.13-49.77l98.81-20.8 53.83 75.55a8.01 8.01 0 0 0 6.52 3.36h.03a7.99 7.99 0 0 0 6.52-3.41l52.97-75.67 99.64 20.97a71.856 71.856 0 0 1 54.13 49.77l2.41 64.34z"/><path d="m200 216h16a8 8 0 0 0 0-16h-16a8 8 0 0 0 0 16z"/><path d="m296 216h16a8 8 0 0 0 0-16h-16a8 8 0 0 0 0 16z"/></g></g></svg>