<svg height="512" viewBox="0 0 512 512" width="512" xmlns="http://www.w3.org/2000/svg"><g><g><g fill="none"><path d="m160 160 32 64"/><path d="m320 224 32-64"/></g><g><path d="m320 224v67.87a71.728 71.728 0 0 1 -40 12.13h-48a71.566 71.566 0 0 1 -32-7.49 68.955 68.955 0 0 1 -7.99-4.64h-.01v-67.87z" fill="#57565c"/><path d="m352 152v80a71.92 71.92 0 0 1 -32 59.87v-67.87h-128v67.87a71.92 71.92 0 0 1 -32-59.87v-80z" fill="#ffdaaa"/><path d="m360.26 338.16-120.26 157.84h-56l43.85-57.55 29.44-38.65 54.71-71.8z" fill="#d80027"/><path d="m257.29 399.8-29.44 38.65-76.14-100.29 47.05-9.9z" fill="#ab2300"/><path d="m227.85 438.45-43.85 57.55h-152l2.75-89.63a80.021 80.021 0 0 1 60.44-56.31l56.52-11.9z" fill="#2d2d30"/><path d="m480 496h-240l120.26-157.84 56.55 11.9a80.021 80.021 0 0 1 60.44 56.31z" fill="#2d2d30"/><g fill="#ffdaaa"><path d="m148 160h12a0 0 0 0 1 0 0v64a0 0 0 0 1 0 0h-12a20 20 0 0 1 -20-20v-24a20 20 0 0 1 20-20z"/><path d="m384 180v24a19.994 19.994 0 0 1 -20 20h-12v-64h12a20.016 20.016 0 0 1 20 20z"/><path d="m161.38 88c7.71-43.94 47.14-72 94.62-72s86.91 28.06 94.62 72z"/><path d="m232 43.2c-13.754 3.861-25.369 11.071-33.719 20.8z"/></g><path d="m144 88h224v64h-224z" fill="#d80027"/><path d="m408 160 16 24h-40v-4a20.016 20.016 0 0 0 -20-20h-12v-8h16v-16h56z" fill="#ab2300"/><path d="m384 180v4l-6.13-18.4a19.9 19.9 0 0 1 6.13 14.4z" fill="#ffdaaa"/><path d="m312 296.51v31.49l-54.71 71.8-58.53-71.54 1.24-.26v-31.49a71.566 71.566 0 0 0 32 7.49h48a71.566 71.566 0 0 0 32-7.49z" fill="#ffdaaa"/></g></g><g><path d="m485.25 406.12a8.094 8.094 0 0 0 -.31-1.95 87.824 87.824 0 0 0 -66.48-61.94l-98.46-20.72v-20.27a80.03 80.03 0 0 0 40-69.24h4a28.031 28.031 0 0 0 28-28v-12h32a8.009 8.009 0 0 0 6.66-12.44l-13.04-19.56 13.04-19.56a8.009 8.009 0 0 0 -6.66-12.44h-48v-40a8 8 0 0 0 -8-8h-10.93a89.879 89.879 0 0 0 -34.06-50.89c-18.5-13.81-41.68-21.11-67.01-21.11s-48.51 7.3-67.01 21.11a89.879 89.879 0 0 0 -34.06 50.89h-10.93a8 8 0 0 0 -8 8v64a8.065 8.065 0 0 0 .41 2.52 28.034 28.034 0 0 0 -16.41 25.48v24a28.031 28.031 0 0 0 28 28h4a80.03 80.03 0 0 0 40 69.24v20.27l-98.46 20.72a87.824 87.824 0 0 0 -66.48 61.94 8.094 8.094 0 0 0 -.31 1.95l-2.75 89.63a8.01 8.01 0 0 0 8 8.25h448a8.01 8.01 0 0 0 8-8.25zm-141.25-174.12a63.682 63.682 0 0 1 -16 42.26v-48.37l16-32zm32-80v-8h33.05l-7.71 11.56a8.013 8.013 0 0 0 0 8.88l7.71 11.56h-17.34a28.091 28.091 0 0 0 -16.12-21.48 8.065 8.065 0 0 0 .41-2.52zm0 28v24a12.01 12.01 0 0 1 -12 12h-4v-48h4a12.01 12.01 0 0 1 12 12zm-120-156c41.31 0 74.05 22.14 84.47 56h-168.94c10.42-33.86 43.16-56 84.47-56zm-104 192h-4a12.01 12.01 0 0 1 -12-12v-24a12.01 12.01 0 0 1 12-12h4zm0-96h40a8 8 0 0 0 0-16h-40v-8h208v24h-32a8 8 0 0 0 0 16h32v8h-208zm32 154.26a63.682 63.682 0 0 1 -16-42.26v-38.11l16 32zm-15.06-114.26h174.12l-28 56h-118.12zm111.06 136h-48a63.632 63.632 0 0 1 -32-8.61v-55.39h112v55.39a63.632 63.632 0 0 1 -32 8.61zm24 12.32v16.98l-47.49 62.33-48.51-62.37v-16.94a79.673 79.673 0 0 0 24 3.68h48a79.673 79.673 0 0 0 24-3.68zm-107.24 28.54 49.72 63.93-18.62 24.44-62.14-81.84zm-16.72 151.14h-68.04v-48a8 8 0 0 0 -16 0v48h-55.75l2.46-80.36a71.845 71.845 0 0 1 54.13-49.75l51.56-10.85 69.4 91.4zm56 0h-35.89l34.21-44.89c0-.01 0-.01.01-.02l80.93-106.22 30.93 6.51zm179.96 0v-48a8 8 0 0 0 -16 0v48h-143.85l107.41-140.97 51.6 10.86a71.845 71.845 0 0 1 54.13 49.75l2.46 80.36z"/><path d="m229.838 35.494c-15.2 4.267-28.215 12.323-37.629 23.3a8 8 0 0 0 12.145 10.418c7.349-8.568 17.657-14.9 29.808-18.311a8 8 0 1 0 -4.324-15.4z"/><path d="m216 176h-16a8 8 0 0 0 0 16h16a8 8 0 0 0 0-16z"/><path d="m312 176h-16a8 8 0 0 0 0 16h16a8 8 0 0 0 0-16z"/></g></g></svg>