<svg id="Capa_1" enable-background="new 0 0 512 512" height="512" viewBox="0 0 512 512" width="512" xmlns="http://www.w3.org/2000/svg"><path d="m308.705 98.934 14.183 27.239c13.026 25.017 21.085 52.32 23.733 80.4l10.313 109.38 37.191 4.655-8.947-127.57c-2.061-29.389-5.353-58.679-9.865-87.793-8.72-56.249-57.144-97.745-114.066-97.745s-105.346 41.496-114.065 97.746c-4.513 29.114-7.804 58.404-9.865 87.794l-8.947 127.57 37.191-4.655 10.313-109.38c2.648-28.081 10.707-55.383 23.733-80.4l14.654-28.144 13.041 6.231c21.526 10.285 46.498 10.527 68.219.662z" fill="#d5d8f1"/><path d="m385.177 193.039c-2.061-29.389-5.353-58.68-9.865-87.793-7.101-45.812-40.539-81.838-83.455-93.63 22.692 17.555 38.78 43.472 43.455 73.63 4.513 29.114 7.804 58.404 9.865 87.794l4.992 71.177 6.764 71.737 37.191 4.655z" fill="#bec3ea"/><path d="m346.62 206.574c-2.648-28.081-10.707-55.383-23.733-80.4l-14.183-27.239-13.183 5.988c-21.721 9.866-46.693 9.623-68.219-.662l-13.041-6.231-14.654 28.144c-13.026 25.017-21.085 52.32-23.733 80.4l-1.734 18.391c15.329 37.153 62.302 61.534 87.107 61.534s71.778-24.381 87.107-61.534z" fill="#d3effb"/><path d="m346.62 206.574c-2.647-28.081-10.707-55.383-23.733-80.4l-14.183-27.239-13.184 5.988c-3.643 1.655-7.378 3.025-11.173 4.111 12.168 24.233 19.725 50.528 22.272 77.544 1.48 15.701-3.642 31.348-14.251 43.017-20.841 22.923-52.338 36.905-71.122 36.905-4.36 0-9.404-.753-14.841-2.197 18.759 14.05 40.503 22.197 54.841 22.197 24.805 0 71.778-24.381 87.107-61.534z" fill="#b1e4f9"/><path d="m348.354 224.965c-7.168 17.373-21.255 31.953-36.759 42.553.007-.005.015-.01.022-.015v35.039c0 4.379 3.26 8.073 7.605 8.617l37.703 4.719-8.574-90.94z" fill="#a2aae2"/><path d="m174.141 224.965c7.168 17.373 21.255 31.953 36.759 42.553-.007-.005-.015-.01-.022-.015v35.039c0 4.379-3.26 8.073-7.605 8.617l-37.703 4.719 8.574-90.94z" fill="#a2aae2"/><path d="m205.654 452.416-138.587-27.836v79.92h216.668c-18.069-26.964-46.491-45.739-78.081-52.084z" fill="#8993da"/><path d="m210.576 427.905c18.137 3.643 35.299 10.614 50.676 20.434-.002-.001-.003-.002-.005-.003 15.375-9.818 32.536-16.788 50.671-20.431 0 0 108.532-21.8 143.509-28.825v-9.703c0-34.948-26.021-64.429-60.698-68.769l-75.506-9.451c-4.345-.544-7.605-4.238-7.605-8.617v-35.039c-17.658 12.079-37.159 18.996-50.37 18.996-13.212 0-32.712-6.917-50.371-18.996v35.039c0 4.379-3.26 8.073-7.605 8.617l-75.506 9.451c-34.678 4.34-60.698 33.821-60.698 68.769v9.703c34.975 7.026 143.508 28.825 143.508 28.825z" fill="#d3effb"/><path d="m395.46 320.704c12.405 12.58 19.968 29.832 19.968 48.674 0 5.643-3.975 10.501-9.507 11.612-41.838 8.403-134.002 26.915-134.002 26.915-19.047 3.826-37.019 11.322-52.976 21.934 15.052 3.94 29.318 10.203 42.31 18.5-.002-.001-.003-.002-.005-.003 15.375-9.818 32.536-16.788 50.671-20.431 0 0 108.533-21.8 143.509-28.825v-9.703c0-34.701-25.656-64.012-59.968-68.673z" fill="#b1e4f9"/><path d="m316.841 452.416c-12.025 2.416-23.591 6.632-34.302 12.416 4.265 3.973 8.309 8.209 12.107 12.693l22.842 26.975h137.939v-79.92z" fill="#8993da"/><path d="m215.595 454.851c.494.371.986.747 1.475 1.125 11.972 9.282 5.194 28.523-9.955 28.523h-140.048v20h216.669c-16.152-24.102-40.576-41.66-68.141-49.648z" fill="#707dd3"/><path d="m415.428 432.614v25.973c0 14.311-11.602 25.913-25.913 25.913h-88.962l16.936 20h137.939v-79.92z" fill="#707dd3"/><path d="m294.646 477.525c-21.63-25.543-51.255-43.028-84.07-49.619 0 0-122.996-24.705-149.314-29.991-2.544-.511-4.918 1.434-4.918 4.029v17.116c0 1.958 1.381 3.644 3.3 4.029l146.009 29.327c31.591 6.346 60.013 25.12 78.082 52.084h33.753z" fill="#f1f1f4"/><path d="m311.919 427.905c-18.135 3.643-35.296 10.613-50.671 20.431 7.561 4.828 14.691 10.346 21.292 16.495 10.711-5.784 22.277-10 34.302-12.416l146.009-29.327c1.919-.386 3.3-2.071 3.3-4.029v-17.116c0-2.595-2.374-4.54-4.918-4.029-26.316 5.286-149.314 29.991-149.314 29.991z" fill="#dfdde2"/><path d="m298.514 327.25c-3.363-2.417-8.049-1.651-10.468 1.713l-15.628 21.748c-4.913 6.835-17.425 6.844-22.342 0l-15.629-21.748c-2.42-3.365-7.106-4.13-10.468-1.713-3.363 2.417-4.131 7.104-1.714 10.467l15.63 21.748c10.904 15.172 35.811 15.153 46.703 0l15.629-21.748c2.418-3.363 1.651-8.05-1.713-10.467z"/><path d="m132.614 260.097c-4.133-.292-7.716 2.825-8.006 6.957l-3.297 47.009c-34.335 6.857-61.744 36.951-61.744 76.302-5.978.45-10.723 5.447-10.723 11.579v17.116c0 5.51 3.92 10.296 9.323 11.382l1.399.281v73.777c0 4.142 3.357 7.5 7.5 7.5h388.36c4.143 0 7.5-3.358 7.5-7.5v-29.333c0-4.142-3.357-7.5-7.5-7.5s-7.5 3.358-7.5 7.5v21.833h-53.223v-29.717c0-4.142-3.357-7.5-7.5-7.5s-7.5 3.358-7.5 7.5v29.717h-58.739c-22.415-26.469-22.17-26.28-25.675-30.025 7.417-3.204 15.127-5.619 23.027-7.206l129.609-26.032v7.43c0 4.142 3.357 7.5 7.5 7.5s7.5-3.358 7.5-7.5v-10.443l1.401-.281c5.401-1.086 9.322-5.873 9.322-11.382v-17.116c0-6.132-4.75-11.129-10.724-11.58 0-39.399-27.45-69.453-61.744-76.301l-8.525-121.548c-2.067-29.476-5.41-59.224-9.936-88.417-9.287-59.94-60.924-104.099-121.472-104.099-60.654 0-112.201 44.265-121.476 104.097-7.764 50.083-9.536 82.714-12.585 126.197-.29 4.132 2.825 7.717 6.957 8.006 4.113.287 7.716-2.824 8.006-6.957 3.09-44.064 4.754-75.329 12.444-124.949 8.158-52.623 53.495-91.394 106.655-91.394 53.368 0 98.526 38.968 106.653 91.395 4.461 28.781 7.757 58.109 9.795 87.169l8.303 118.393-22.171-2.775c-1.665-17.657 1.419 15.054-9.742-103.313-2.751-29.184-11.01-57.163-24.547-83.16-17.089-32.821-12.133-23.302-22.335-42.896-1.913-3.674-6.442-5.102-10.116-3.188s-5.102 6.442-3.188 10.116l4.497 8.637-5.978 2.715c-7.587 3.446-15.587 5.536-23.673 6.273v-19.6c0-4.142-3.357-7.5-7.5-7.5s-7.5 3.358-7.5 7.5v19.42c-13.36-1.543-21.505-5.878-29.248-9.577l4.788-9.196c1.913-3.674.485-8.203-3.188-10.116s-8.203-.486-10.116 3.188c-4.909 9.429-18.118 34.797-23.027 44.226-13.537 26-21.796 53.979-24.547 83.16-5.196 55.103-5.931 62.894-9.742 103.313l-22.171 2.775 3.076-43.854c.29-4.134-2.824-7.718-6.957-8.008zm-58.047 173.639 129.609 26.033c24.928 5.007 47.714 18.311 64.342 37.231h-125.728v-29.717c0-4.142-3.357-7.5-7.5-7.5s-7.5 3.358-7.5 7.5v29.717h-53.223zm240.798 11.327c-10.95 2.199-21.574 5.804-31.654 10.734-2.76-2.4-5.608-4.707-8.533-6.91 11.998-6.363 24.81-10.935 38.218-13.628 2.485-.499 142.989-28.72 145.256-29.175v10.2c-196.341 39.434-50.813 10.204-143.287 28.779zm132.562-55.685v3.56l-50.698 10.183c1.004-1.889 2.293-3.638 3.844-5.188 2.93-2.929 2.93-7.678.001-10.607-2.929-2.928-7.678-2.929-10.606 0-5.296 5.296-8.788 11.957-10.138 19.19l-69.887 14.037c-17.454 3.506-33.994 9.889-49.231 18.992-15.124-9.019-31.761-15.498-49.159-18.992l-10.271-2.063c-4.066-.814-8.015 1.815-8.831 5.876-.815 4.061 1.815 8.014 5.876 8.83l10.273 2.063c31.024 6.232 59.373 22.963 79.823 47.113l12.387 14.628h-13.65c-19.093-26.609-48.223-45.448-80.529-51.938-13.746-2.761-127.469-25.603-143.286-28.78v-10.2c6.138 1.233 1.619.325 100.248 20.135 4.061.818 8.015-1.815 8.83-5.876s-1.815-8.015-5.877-8.83l-24.879-4.997c-1.35-7.232-4.842-13.894-10.138-19.19-2.929-2.928-7.678-2.929-10.606 0-2.93 2.929-2.93 7.678-.001 10.607 1.551 1.551 2.84 3.299 3.844 5.189l-50.699-10.183v-3.559c0-30.948 23.044-57.208 53.679-61.269.758.012-2.543.392 38.246-4.713.356-.045.705-.114 1.043-.206l36.667-4.589c8.08-1.012 14.174-7.916 14.174-16.059v-21.694c15.547 8.481 31.288 13.152 42.871 13.152s27.324-4.671 42.87-13.151v21.694c0 8.143 6.094 15.047 14.174 16.059l36.667 4.589c.339.092.687.162 1.043.206 40.055 5.013 37.468 4.723 38.235 4.712 30.642 4.055 53.691 30.317 53.691 61.269zm-127.772-85.662c-.591-.074-1.037-.579-1.037-1.175v-31.18c8.84-6.428 17.115-14.088 23.927-22.804l5.536 58.716zm-113.896-174.079 11.308-21.716 6.502 3.106c23.58 11.268 50.755 11.533 74.554.723l6.712-3.048 10.9 20.936c12.639 24.272 20.349 50.394 22.918 77.641l1.555 16.488c-5.783 12.955-17.509 27.477-36.399 39.583-14.837 9.506-31.738 15.649-43.061 15.649s-28.225-6.143-43.061-15.649c-15.045-9.64-29.124-23.283-36.4-39.583l1.555-16.488c2.568-27.245 10.279-53.367 22.917-77.642zm-26.81 118.921c6.812 8.716 15.088 16.376 23.927 22.803v31.18c0 .596-.446 1.101-1.037 1.175l-28.427 3.558z"/><path d="m262.343 218.395c11.142 0 20.206-9.064 20.206-20.206v-25.034c0-2.87 2.335-5.206 5.206-5.206h26.412c4.143 0 7.5-3.358 7.5-7.5s-3.357-7.5-7.5-7.5h-26.412c-11.142 0-20.206 9.064-20.206 20.206v25.034c0 2.87-2.335 5.206-5.206 5.206-4.143 0-7.5 3.358-7.5 7.5s3.358 7.5 7.5 7.5z"/><path d="m208.327 167.949h39.118c4.143 0 7.5-3.358 7.5-7.5s-3.357-7.5-7.5-7.5h-39.118c-4.143 0-7.5 3.358-7.5 7.5s3.357 7.5 7.5 7.5z"/><path d="m238.036 142.507h9.409c4.143 0 7.5-3.358 7.5-7.5s-3.357-7.5-7.5-7.5h-9.409c-4.143 0-7.5 3.358-7.5 7.5s3.357 7.5 7.5 7.5z"/><path d="m275.049 142.507h9.409c4.143 0 7.5-3.358 7.5-7.5s-3.357-7.5-7.5-7.5h-9.409c-4.143 0-7.5 3.358-7.5 7.5s3.358 7.5 7.5 7.5z"/><path d="m279.755 237.953h-37.015c-4.143 0-7.5 3.358-7.5 7.5s3.357 7.5 7.5 7.5h37.015c4.143 0 7.5-3.358 7.5-7.5s-3.358-7.5-7.5-7.5z"/><path d="m405.629 204.934c2.08 3.605 6.675 4.808 10.245 2.745l16.539-9.549v16.765c0 4.142 3.357 7.5 7.5 7.5s7.5-3.358 7.5-7.5v-16.765l14.52 8.383c3.581 2.067 8.171.849 10.245-2.745 2.071-3.587.842-8.174-2.745-10.245l-14.519-8.383 14.519-8.383c3.587-2.071 4.816-6.658 2.745-10.245s-6.66-4.816-10.245-2.745l-14.52 8.383v-19.1c0-4.142-3.357-7.5-7.5-7.5s-7.5 3.358-7.5 7.5v19.098l-16.539-9.549c-3.589-2.072-8.175-.843-10.245 2.745-2.071 3.587-.842 8.174 2.745 10.245l16.54 9.549-16.54 9.549c-3.587 2.072-4.817 6.659-2.745 10.247z"/><path d="m39.355 296.832c2.082 3.605 6.675 4.808 10.245 2.745l14.059-8.117v14.107c0 4.142 3.357 7.5 7.5 7.5s7.5-3.358 7.5-7.5v-14.107l12.217 7.053c3.581 2.067 8.17.85 10.245-2.745 2.071-3.587.842-8.174-2.745-10.245l-12.217-7.054 12.217-7.054c3.587-2.071 4.816-6.658 2.745-10.245-2.072-3.588-6.659-4.816-10.245-2.745l-12.217 7.053v-16.232c0-4.142-3.357-7.5-7.5-7.5s-7.5 3.358-7.5 7.5v16.233l-14.059-8.116c-3.59-2.072-8.175-.842-10.245 2.745-2.071 3.587-.842 8.174 2.745 10.245l14.058 8.116-14.058 8.117c-3.587 2.071-4.816 6.658-2.745 10.246z"/></svg>