<svg height="512" viewBox="0 0 512 512" width="512" xmlns="http://www.w3.org/2000/svg"><g><g><g><g><path d="m320 264.89v35.25a137.186 137.186 0 0 1 -16 11.69c-16.39 10.24-33.72 16.17-48 16.17s-31.61-5.93-48-16.17a137.186 137.186 0 0 1 -16-11.69v-35.25l6.4-24.89h115.2z" fill="#cca400"/><path d="m360 160v64c0 26.7-13.83 51.05-32.65 69.47q-3.57 3.48-7.35 6.67v-35.25l-6.4-24.89h-115.2l-6.4 24.89v35.25c-1.01-.84-2.01-1.71-3-2.6-1.47-1.32-2.93-2.68-4.35-4.07-18.82-18.42-32.65-42.77-32.65-69.47v-64z" fill="#ffdaaa"/><path d="m472 496h-432l2.75-73.63a80.021 80.021 0 0 1 60.44-56.31l56.81-11.96v21.9a96 96 0 0 0 192 0v-21.9l56.81 11.96a80.021 80.021 0 0 1 60.44 56.31z" fill="#d80027"/><g fill="#ffdaaa"><circle cx="208" cy="192" r="16"/><circle cx="304" cy="192" r="16"/></g></g><path d="m218.97 160-4.47 17.38-7.86 30.56-8.24 32.06-6.4 24.89-7.35 28.58c-18.82-18.42-32.65-42.77-32.65-69.47v-64z" fill="#ffdaaa"/><path d="m218.97 160-4.47 17.38-7.86 30.56-8.24 32.06-6.4 24.89-7.35 28.58c-18.82-18.42-32.65-42.77-32.65-69.47v-64z" fill="#ffdaaa"/><path d="m448 256c-24 32-120 40-120 40l-.65-2.53c18.82-18.42 32.65-42.77 32.65-69.47v-64h-208v64c0 26.7 13.83 51.05 32.65 69.47l-.65 2.53s-96-8-120-40c0 0 64-56 64-104 0-75.11 57.31-136 128-136s128 60.89 128 136c0 48 64 104 64 104z" fill="#806749"/><g fill="#ffdaaa"><path d="m360 160v64c0 26.7-13.83 51.05-32.65 69.47l-7.35-28.58-6.4-24.89-8.24-32.06-7.86-30.56-4.47-17.38z"/><path d="m352 354.1v21.9a96 96 0 0 1 -192 0v-21.9l3.39-.71 44.61-9.39v-32.17c16.39 10.24 33.72 16.17 48 16.17s31.61-5.93 48-16.17v32.17l44.61 9.39z"/><path d="m160 353.39h3.39l-3.39.71z"/><path d="m352 353.39v.71l-3.39-.71z"/></g></g><g><path d="m192 240h6.4l-6.4 24.89z" fill="#ffdaaa"/><path d="m320 240v24.89l-6.4-24.89z" fill="#ffdaaa"/><g fill="none"><path d="m152 184 40 56"/><path d="m320 240 40-56"/></g></g></g><g><path d="m477.24 422.07a7.683 7.683 0 0 0 -.3-1.9 87.824 87.824 0 0 0 -66.48-61.94l-98.46-20.72v-21.4a148.008 148.008 0 0 0 15.68-12.12c.1 0 .21.01.31.01.22 0 .45-.01.67-.03a430.388 430.388 0 0 0 52.08-8.16c37.74-8.39 62.53-20.17 73.66-35.01a8 8 0 0 0 -1.13-10.82 289.47 289.47 0 0 1 -31.18-33.17c-19.68-24.66-30.09-47.07-30.09-64.81 0-79.4-61.01-144-136-144s-136 64.6-136 144c0 17.74-10.41 40.15-30.09 64.81a289.47 289.47 0 0 1 -31.18 33.17 8 8 0 0 0 -1.13 10.82c11.13 14.84 35.92 26.62 73.66 35.01a430.388 430.388 0 0 0 52.08 8.16c.22.02.45.03.67.03.1 0 .21-.01.31-.01a148.008 148.008 0 0 0 15.68 12.12v21.4l-98.46 20.72a87.824 87.824 0 0 0 -66.48 61.94 7.683 7.683 0 0 0 -.3 1.9l-2.75 73.63a8 8 0 0 0 7.99 8.3h432a8 8 0 0 0 7.99-8.3zm-165.24-125.7c-18.18 14.51-39.55 23.63-56 23.63s-37.82-9.12-56-23.63v-48.37h112zm16-15.14v-38.67l24-33.6v15.04c0 11.97-3.39 34.04-24 57.23zm-252.66-24.82c16.54-15.83 60.66-62.03 60.66-104.41 0-70.58 53.83-128 120-128s120 57.42 120 128c0 42.38 44.12 88.58 60.66 104.41-18.94 16.37-63.19 25.64-92 29.64 14-17.77 23.34-39.11 23.34-62.05v-64a8 8 0 0 0 -8-8h-208a8 8 0 0 0 -8 8v64c0 22.95 9.34 44.29 23.34 62.05-28.8-3.99-73.05-13.25-92-29.64zm108.66 24.82c-20.61-23.19-24-45.26-24-57.23v-15.04l24 33.6zm12.12-49.23-36.12-50.56v-13.44h192v13.44l-36.12 50.56zm-28.12 128.59 41.65-8.76a8 8 0 0 0 6.35-7.8v-18.65c13.85 6.81 27.82 10.62 40 10.62s26.15-3.81 40-10.62v18.65a8 8 0 0 0 6.35 7.8l41.65 8.76v15.41a88 88 0 0 1 -176 0zm232 127.41v-32a8 8 0 0 0 -16 0v32h-256v-32a8 8 0 0 0 -16 0v32h-63.7l2.41-64.34a71.856 71.856 0 0 1 54.13-49.77l47.16-9.93v12.04a104 104 0 0 0 208 0v-12.04l47.16 9.93a71.856 71.856 0 0 1 54.13 49.77l2.41 64.34z"/><circle cx="208" cy="192" r="16"/><circle cx="304" cy="192" r="16"/></g></g></svg>