<svg height="512" viewBox="0 0 512 512" width="512" xmlns="http://www.w3.org/2000/svg"><g><g><g><g><path d="m192 232v67.87a71.92 71.92 0 0 1 -32-59.87v-72z" fill="#ffdaaa"/><path d="m352 168v72a71.92 71.92 0 0 1 -32 59.87v-67.87z" fill="#ffdaaa"/><path d="m480 496h-448l2.75-89.63a80.021 80.021 0 0 1 60.44-56.31l104.81-22.06a56 56 0 0 0 112 0l104.81 22.06a80.021 80.021 0 0 1 60.44 56.31z" fill="#3e3d42"/><g fill="#ffdaaa"><path d="m312 312v16a56 56 0 0 1 -112 0v-16z"/><path d="m160 168v64h-12a19.994 19.994 0 0 1 -20-20v-24a19.994 19.994 0 0 1 20-20z"/><path d="m384 188v24a19.994 19.994 0 0 1 -20 20h-12v-64h12a19.994 19.994 0 0 1 20 20z"/></g></g><path d="m368 128v40h-224v-40a112 112 0 1 1 224 0z" fill="#d80027"/><path d="m288 152a15.979 15.979 0 0 1 -16 16h-64v-32h64a16 16 0 0 1 16 16z" fill="#2d2d30"/><path d="m240 104a32 32 0 0 1 32 32 0 0 0 0 1 0 0h-64a0 0 0 0 1 0 0 32 32 0 0 1 32-32z" fill="#5f4d37"/><path d="m368 128h72a40 40 0 0 1 40 40 0 0 0 0 1 0 0h-112a0 0 0 0 1 0 0v-40a0 0 0 0 1 0 0z" fill="#ab2300"/></g><g><path d="m352 168-32 64h-128l-32-64z" fill="#ffdaaa"/><path d="m192 232h128v80h-128z" fill="#787680"/></g></g><path d="m484.94 404.17a87.824 87.824 0 0 0 -66.48-61.94l-98.46-20.72v-1.51a8 8 0 0 0 8-8v-8.01a79.9 79.9 0 0 0 32-63.99h4a28.031 28.031 0 0 0 28-28v-24a27.75 27.75 0 0 0 -2.71-12h90.71a8 8 0 0 0 8-8 48.051 48.051 0 0 0 -48-48h-64.27a120 120 0 0 0 -239.73 8v34.71a28.026 28.026 0 0 0 -16 25.29v24a28.031 28.031 0 0 0 28 28h4a79.9 79.9 0 0 0 32 63.99v8.01a8 8 0 0 0 8 8v1.51l-98.46 20.72a87.824 87.824 0 0 0 -66.48 61.94 8.094 8.094 0 0 0 -.31 1.95l-2.75 89.63a8.01 8.01 0 0 0 8 8.25h448a8.01 8.01 0 0 0 8-8.25l-2.75-89.63a8.094 8.094 0 0 0 -.31-1.95zm-140.94-164.17a63.9 63.9 0 0 1 -16 42.33v-48.44l16-32zm32-104h64a32.058 32.058 0 0 1 30.99 24h-94.99zm0 52v24a12.01 12.01 0 0 1 -12 12h-4v-48h4a12.01 12.01 0 0 1 12 12zm-224 36h-4a12.01 12.01 0 0 1 -12-12v-24a12.01 12.01 0 0 1 12-12h4zm0-96a104 104 0 0 1 208 0v32h-65.38a23.98 23.98 0 0 0 -15.21-30.83 40 40 0 0 0 -79.41 6.83v24h-48zm120 16a8 8 0 0 1 0 16h-56v-16zm-54.63-16a24 24 0 0 1 45.26 0zm-33.37 154.33a63.9 63.9 0 0 1 -16-42.33v-38.11l16 32zm-11.06-106.33h21.22a16 16 0 1 0 27.68 0h68.32a16 16 0 1 0 27.68 0h21.22l-24 48h-118.12zm27.06 128v-64h112v64zm104 16v8a48 48 0 0 1 -96 0v-8zm112 168v-48a8 8 0 0 0 -16 0v48h-288v-48a8 8 0 0 0 -16 0v48h-55.75l2.46-80.36a71.845 71.845 0 0 1 54.13-49.75l95.9-20.19a64 64 0 0 0 126.52 0l95.9 20.19a71.845 71.845 0 0 1 54.13 49.75l2.46 80.36z"/></g></svg>