<svg height="512" viewBox="0 0 512 512" width="512" xmlns="http://www.w3.org/2000/svg"><g><g><g><g><g><path d="m280.93 328c-.32.01-.63.01-.95.01l-24-.01z" fill="#ffdaaa"/><path d="m312 320v.52c-.01.01-.01.01-.02.01v-.53z" fill="#ffdaaa"/><path d="m352.02 184.02-.02 64v8a71.938 71.938 0 0 1 -32 59.86v-75.88l-64-16-64 16v75.86a71.887 71.887 0 0 1 -32-59.88v-8l.02-63.95v-.05l144 .03 47.97.01z" fill="#ffdaaa"/><path d="m336 349.07v18.93a40 40 0 0 1 -40 40h-80a40 40 0 0 1 -40-40v-18.97l23.98-5.04v15.15h2.88c7.4 18.41 28.4 24.86 53.14 24.86s45.72-6.44 53.13-24.83a41.8 41.8 0 0 0 2.85-14.74c0-.14.01-.28.01-.42z" fill="#4e901e"/><path d="m479.94 496.06-72-.02-152-.04-39.94-.01-40-.01-48-.01-24.06-.01-71-.02 1.77-73.63a80.009 80.009 0 0 1 60.45-56.29l32.84-6.9 48 .01v8.87a40 40 0 0 0 40 40h80a40 40 0 0 0 40-40v-8.82l48 .01 32.78 6.91a80.032 80.032 0 0 1 60.43 56.33z" fill="#4e901e"/><path d="m103.949 455.961-.011 40" fill="none"/><path d="m407.949 456.039-.011 40" fill="none"/><g fill="#ffdaaa"><circle cx="208.014" cy="199.988" r="16"/><circle cx="304.014" cy="200.012" r="16"/><path d="m148.01 183.971h12a0 0 0 0 1 0 0v64a0 0 0 0 1 0 0h-12a20 20 0 0 1 -20-20v-24a20 20 0 0 1 20-20z"/><path d="m372.01 184.029h12a0 0 0 0 1 0 0v64a0 0 0 0 1 0 0h-12a20 20 0 0 1 -20-20v-24a20 20 0 0 1 20-20z" transform="matrix(-1 0 0 -1 735.965 432.152)"/></g></g><path d="m376 120v56h-240v-56a91.249 91.249 0 0 1 5.79-32h82.21l40-32-25.9-38.85a138.726 138.726 0 0 1 17.9-1.15c28.97 0 55.54 8.89 76.27 23.71l-28.21 40.95 15.97 22.97h33.94l13.73-21.73a91.735 91.735 0 0 1 8.3 38.1z" fill="#4e901e"/></g><path d="m384 344v152h-256v-152h48v24a40 40 0 0 0 40 40h80a40 40 0 0 0 40-40v-24z" fill="#00665a"/><path d="m176 448h40v48h-40z" fill="#4e901e"/><path d="m296 448h40v48h-40z" fill="#4e901e"/><path d="m312 343c0 .34 0 .67-.01 1v.01c0 .14-.01.28-.01.42v-1.43z" fill="#ffdaaa"/><g fill="#00665a"><path d="m312 176h-56v-32l24-24h24z"/><path d="m367.7 81.9-13.73 21.73h-33.94l-15.97-22.97 28.21-40.95c15.6 11.13 27.89 25.62 35.42 42.18z"/><path d="m264 56-40 32h-82.21c13.8-37.02 50.89-64.96 96.3-70.84l.01-.01z"/></g></g><g><path d="m320 240v75.88a70.559 70.559 0 0 1 -8 4.64v-.52h-.02v.53a71.584 71.584 0 0 1 -31.05 7.47h-24.95l-24-.01a71.614 71.614 0 0 1 -31.98-7.49c-.01 0-.02 0-.02-.01a70.219 70.219 0 0 1 -7.98-4.63v-75.86l64-16z" fill="#4e901e"/><g fill="none"><path d="m160 184 32 56"/><path d="m320 240 32-56"/></g></g></g><path d="m311.98 320.53v23.9a41.8 41.8 0 0 1 -2.85 14.74c-7.41 18.39-28.4 24.83-53.13 24.83s-45.74-6.45-53.14-24.86a42.1 42.1 0 0 1 -2.85-15.14c-.01-.33-.01-.66-.01-1v-22.5a71.614 71.614 0 0 0 31.98 7.49l48 .02c.32 0 .63 0 .95-.01a71.584 71.584 0 0 0 31.05-7.47z" fill="#ffdaaa"/><g fill="none"><path d="m200 343c0 .34 0 .67.01 1h-.01z"/><path d="m280.93 328c-.32.01-.63.01-.95.01l-24-.01z"/><path d="m311.98 320h.02v24h-.02z"/></g><g><path d="m485.2 422.13a7.683 7.683 0 0 0 -.3-1.9 87.82 87.82 0 0 0 -66.47-61.96l-26.43-5.57v-8.7a8 8 0 0 0 -8-8h-48a7.989 7.989 0 0 0 -6.61 3.5l-9.41-1.98v-12.21a80.083 80.083 0 0 0 40.02-69.28h4.01a28.041 28.041 0 0 0 28-27.99v-24a27.868 27.868 0 0 0 -8.46-20.04h16.45a8 8 0 0 0 0-16h-16v-48c0-61.76-57.42-112-128-112s-128 50.24-128 112v48h-16a8 8 0 0 0 0 16h16.42a27.933 27.933 0 0 0 -8.41 19.96v24a28.024 28.024 0 0 0 27.99 28.01h4a80.028 80.028 0 0 0 39.98 69.25v12.28l-9.39 1.97a7.99 7.99 0 0 0 -6.59-3.47h-48a8 8 0 0 0 -8 8v8.63l-26.49 5.56a87.8 87.8 0 0 0 -66.49 61.92 8.021 8.021 0 0 0 -.31 2.01l-1.77 73.63a7.992 7.992 0 0 0 8 8.19l447 .12a7.965 7.965 0 0 0 3.13-.64 7.843 7.843 0 0 0 2.63-1.81 7.936 7.936 0 0 0 2.23-5.85zm-365.2 65.83h-8.06l.01-32a8 8 0 1 0 -16 0l-.01 32-54.81-.02 1.55-64.39a71.833 71.833 0 0 1 54.13-49.7l23.19-4.87zm224-231.94a63.529 63.529 0 0 1 -16 42.3v-56.2l16.01-28.02zm32.01-51.99v24a12.016 12.016 0 0 1 -12 12h-4.01l.01-32 .01-16h4a12 12 0 0 1 11.99 12zm-17.47-122.62-8.98 14.22h-25.35l-10.42-14.99 20.26-29.42a97.665 97.665 0 0 1 24.49 30.19zm-124.27-55.59 19.01 28.51-32.09 25.67h-66.99c14.8-27.58 44.42-48.15 80.07-54.18zm-90.27 94.18a83.065 83.065 0 0 1 3.54-24h76.46a8.028 8.028 0 0 0 5-1.75l40-32a8.009 8.009 0 0 0 1.66-10.69l-18.34-27.5c1.22-.04 2.45-.06 3.68-.06a124.4 124.4 0 0 1 65.05 17.9l-23.58 34.22a8.01 8.01 0 0 0 .02 9.11l15.97 22.97a8.007 8.007 0 0 0 6.57 3.43h33.94a8 8 0 0 0 6.76-3.73l4.87-7.7a82.824 82.824 0 0 1 2.4 19.8v48h-49.06l-7.02-49.13a8 8 0 0 0 -7.92-6.87h-24a8.008 8.008 0 0 0 -5.66 2.34l-24 24a8.008 8.008 0 0 0 -2.34 5.66v24h-104zm158.78 48h-38.78v-20.69l19.31-19.31h13.75zm-150.77 39.97-.01 32h-4a12.007 12.007 0 0 1 -11.99-12v-24a12.022 12.022 0 0 1 12-12h4.01zm31.99 90.29a63.754 63.754 0 0 1 -16-42.28l.01-41.84 15.99 27.98zm-14.79-114.26h38.56a16 16 0 1 0 .49 0h134.53l-26.73 46.77-58.12-14.53a7.961 7.961 0 0 0 -3.88 0l-58.12 14.53zm134.78 160.34c-.11 9.23-2.38 31.66-47.99 31.66-11.87 0-48 0-48-33 0-.15-.01-.29-.02-.44v-10.26a79.365 79.365 0 0 0 24 3.69l48 .02h.02a80.093 80.093 0 0 0 23.98-3.66v11.66c0 .11.01.22.01.33zm-23.99-24.33h-.02l-48-.02a63.485 63.485 0 0 1 -31.98-8.61v-65.13l56-14 56 14v65.19c-1.22.71-2.47 1.38-3.73 2l-.12.06a63.686 63.686 0 0 1 -28.15 6.51zm-96 35.51 9-1.89c3.42 17.57 17.16 38.37 63 38.37 45.81 0 59.56-20.78 63-38.34l9 1.9v12.44a32.036 32.036 0 0 1 -32 32h-80a32.036 32.036 0 0 1 -32-32zm24 132.47-24-.01v-31.98h24zm120 .01h-24v-32h24zm48 0h-32v-40a8 8 0 0 0 -8-8h-40a8 8 0 0 0 -8 8v40h-31.61l-32.39-.01v-39.99a8 8 0 0 0 -8-8h-40a8 8 0 0 0 -8 8v39.98l-32-.01v-135.97h32v16a48.051 48.051 0 0 0 48 48h80a48.051 48.051 0 0 0 48-48v-16h32zm39.94.04.01-32a8 8 0 1 0 -16 0l-.01 32h-7.94v-118.99l23.13 4.88a71.866 71.866 0 0 1 54.12 49.79l2.39 64.34z"/><path d="m304.01 216.012a16 16 0 1 0 -16-16 16 16 0 0 0 16 16z"/></g></g></svg>