<svg height="512" viewBox="0 0 512 512" width="512" xmlns="http://www.w3.org/2000/svg"><g><g><g><g><g><path d="m320 224v75.87a71.728 71.728 0 0 1 -40 12.13h-48a71.566 71.566 0 0 1 -32-7.49 68.955 68.955 0 0 1 -7.99-4.64h-.01v-75.87l64-8z" fill="#2d2d30"/><path d="m160 144h192v24h-192z" fill="#ffdaaa"/><path d="m352 168v72a71.92 71.92 0 0 1 -32 59.87v-75.87l-64-8-64 8v75.87a71.92 71.92 0 0 1 -32-59.87v-72z" fill="#ffdaaa"/><path d="m342.69 334.46c-3 16.66-13.2 60.66-38.97 73.54 0 0-8.55-29.92-25.65-46.02 2.29-.84 4.64-1.79 6.97-2.85a78.6 78.6 0 0 0 9.33-4.95c9.8-6.11 17.63-14.62 17.63-26.18l22.71 4.78z" fill="#d80027"/><path d="m285.04 359.13c-2.33 1.06-4.68 2.01-6.97 2.85a.462.462 0 0 0 -.07-.07z" fill="#ffdaaa"/><path d="m233.72 361.91c-17.15 16.09-25.72 46.09-25.72 46.09-25.73-12.87-35.95-56.78-38.96-73.48l8.12-1.72h.01l22.83-4.8c0 10.95 7.01 19.16 16.08 25.19a80.625 80.625 0 0 0 13.61 7.13l3.81 1.51z" fill="#d80027"/><path d="m480 496h-448l2.75-89.63a80.021 80.021 0 0 1 60.44-56.31l73.85-15.54c3.01 16.7 13.23 60.61 38.96 73.48 0 0 8.57-30 25.72-46.09a132.548 132.548 0 0 0 22.28 6.09 132.317 132.317 0 0 0 22.07-6.02c17.1 16.1 25.65 46.02 25.65 46.02 25.77-12.88 35.97-56.88 38.97-73.54l74.12 15.6a80.021 80.021 0 0 1 60.44 56.31z" fill="#2d2d30"/><g fill="#ffdaaa"><path d="m312 304.51v23.49c0 11.56-7.83 20.07-17.63 26.18a78.6 78.6 0 0 1 -9.33 4.95l-7.04 2.78a.462.462 0 0 1 .07.07 132.317 132.317 0 0 1 -22.07 6.02 132.548 132.548 0 0 1 -22.28-6.09l-.22-.08-3.81-1.51a80.625 80.625 0 0 1 -13.61-7.13c-9.07-6.03-16.08-14.24-16.08-25.19v-23.49a71.566 71.566 0 0 0 32 7.49h48a71.566 71.566 0 0 0 32-7.49z"/><path d="m285.04 359.13c-2.33 1.06-4.68 2.01-6.97 2.85a.462.462 0 0 0 -.07-.07z"/><path d="m148 168h12a0 0 0 0 1 0 0v64a0 0 0 0 1 0 0h-12a20 20 0 0 1 -20-20v-24a20 20 0 0 1 20-20z"/><path d="m372 168h12a0 0 0 0 1 0 0v64a0 0 0 0 1 0 0h-12a20 20 0 0 1 -20-20v-24a20 20 0 0 1 20-20z" transform="matrix(-1 0 0 -1 736 400)"/></g></g><path d="m360 144h-208l2-32h204z" fill="#d80027"/><path d="m358 112h-204l6-96h192z" fill="#2d2d30"/></g><path d="m177.16 332.8-8.12 1.72" fill="none"/><g fill="#ffdaaa"><path d="m229.69 360.32a80.625 80.625 0 0 1 -13.61-7.13z"/><path d="m278 361.91 7.04-2.78c-2.33 1.06-4.68 2.01-6.97 2.85a.462.462 0 0 0 -.07-.07z"/><path d="m285.04 359.13 9.33-4.95a78.6 78.6 0 0 1 -9.33 4.95z"/></g><path d="m342.69 334.46-7.98-1.68" fill="none"/></g><g fill="none"><path d="m160 216 32 8"/><path d="m320 224 32-8"/></g></g><g><g><g><g><path d="m312 336a8 8 0 0 1 -8-8v-23.49a8 8 0 0 1 16 0v23.49a8 8 0 0 1 -8 8z"/><path d="m200 336a8 8 0 0 1 -8-8v-23.49a8 8 0 0 1 16 0v23.49a8 8 0 0 1 -8 8z"/><path d="m280 320h-48a80.091 80.091 0 0 1 -80-80v-88a8 8 0 0 1 16 0v88a64.072 64.072 0 0 0 64 64h48a64.072 64.072 0 0 0 64-64v-88a8 8 0 0 1 16 0v88a80.091 80.091 0 0 1 -80 80z"/><path d="m480 504h-448a8 8 0 0 1 -8-8.245l2.75-89.63a7.975 7.975 0 0 1 .3-1.953 87.817 87.817 0 0 1 66.482-61.94l104.813-22.061a8 8 0 0 1 3.294 15.658l-104.81 22.06a71.849 71.849 0 0 0 -54.122 49.748l-2.458 80.363h431.5l-2.466-80.363a71.851 71.851 0 0 0 -54.125-49.749l-104.805-22.059a8 8 0 0 1 3.294-15.658l104.811 22.06a87.819 87.819 0 0 1 66.484 61.941 7.975 7.975 0 0 1 .3 1.953l2.75 89.63a8 8 0 0 1 -7.992 8.245z"/><path d="m256 376a7.955 7.955 0 0 1 -1.279-.1 138.4 138.4 0 0 1 -29.931-8.971c-27.102-11.876-32.79-27.724-32.79-38.929a8 8 0 0 1 16 0c0 6.4 3.983 15.779 22.962 24.162a124.411 124.411 0 0 0 25.038 7.707 124.331 124.331 0 0 0 25.038-7.707c18.979-8.383 22.962-17.762 22.962-24.162a8 8 0 0 1 16 0c0 11.2-5.688 27.053-32.79 38.926a138.4 138.4 0 0 1 -29.931 8.971 7.955 7.955 0 0 1 -1.279.103z"/><path d="m104 504a8 8 0 0 1 -8-8v-56a8 8 0 0 1 16 0v56a8 8 0 0 1 -8 8z"/><path d="m408 504a8 8 0 0 1 -8-8v-56a8 8 0 0 1 16 0v56a8 8 0 0 1 -8 8z"/><path d="m160 240h-12a28.032 28.032 0 0 1 -28-28v-24a28.032 28.032 0 0 1 28-28h12a8 8 0 0 1 8 8v64a8 8 0 0 1 -8 8zm-12-64a12.013 12.013 0 0 0 -12 12v24a12.013 12.013 0 0 0 12 12h4v-48z"/><path d="m364 240h-12a8 8 0 0 1 -8-8v-64a8 8 0 0 1 8-8h12a28.032 28.032 0 0 1 28 28v24a28.032 28.032 0 0 1 -28 28zm-4-16h4a12.013 12.013 0 0 0 12-12v-24a12.013 12.013 0 0 0 -12-12h-4z"/></g><path d="m360 152h-208a8 8 0 0 1 -7.984-8.5l8-128a8 8 0 0 1 7.984-7.5h192a8 8 0 0 1 7.984 7.5l8 128a8 8 0 0 1 -7.984 8.5zm-199.484-16h190.968l-7-112h-176.968z"/><path d="m280 320h-48a8 8 0 0 1 0-16h48a8 8 0 0 1 0 16z"/><path d="m352 176h-192a8 8 0 0 1 0-16h192a8 8 0 0 1 0 16z"/></g><path d="m392 152h-272a8 8 0 0 1 0-16h272a8 8 0 0 1 0 16z"/><path d="m357.87 120h-203.74a8 8 0 0 1 0-16h203.74a8 8 0 0 1 0 16z"/><path d="m256 504a8 8 0 0 1 -8-8v-128a8 8 0 0 1 16 0v128a8 8 0 0 1 -8 8z"/><path d="m376 472h-80a8 8 0 0 1 0-16h80a8 8 0 0 1 0 16z"/><path d="m208 416a7.989 7.989 0 0 1 -3.578-.845c-35.342-17.671-43.991-75.568-44.341-78.024a8 8 0 0 1 15.837-2.269 153.7 153.7 0 0 0 7.679 28.611c3.986 10.558 10.5 23.7 20.228 32.127 4.221-10.907 12.279-28.132 24.422-39.524a8 8 0 1 1 10.947 11.669c-15.361 14.411-23.422 42.173-23.5 42.452a8 8 0 0 1 -7.694 5.803z"/><path d="m303.72 416a8 8 0 0 1 -7.692-5.8c-.079-.273-8.208-28.1-23.5-42.452a8 8 0 0 1 10.948-11.669c12.137 11.387 20.193 28.6 24.416 39.51 17.793-15.49 26.1-48.014 27.911-60.717a8 8 0 0 1 15.839 2.262c-.351 2.456-9 60.353-44.342 78.024a7.992 7.992 0 0 1 -3.58.842z"/></g><g><path d="m280 320h-48a8 8 0 0 1 0-16h48a8 8 0 0 1 0 16z"/><path d="m320 307.87a8 8 0 0 1 -8-8v-68.808l-56-7-56 7v68.808a8 8 0 0 1 -16 0v-75.87a8 8 0 0 1 7.008-7.938l64-8a7.935 7.935 0 0 1 1.984 0l64 8a8 8 0 0 1 7.008 7.938v75.87a8 8 0 0 1 -8 8z"/><path d="m168 203.508h16v32.985h-16z" transform="matrix(.243 -.97 .97 .243 -80.118 337.387)"/><path d="m319.508 212h32.985v16h-32.985z" transform="matrix(.97 -.243 .243 .97 -43.328 88.066)"/></g><path d="m304 200h-16a8 8 0 0 1 0-16h16a8 8 0 0 1 0 16z"/><path d="m224 200h-16a8 8 0 0 1 0-16h16a8 8 0 0 1 0 16z"/></g></g></svg>