<svg height="512" viewBox="0 0 512 512" width="512" xmlns="http://www.w3.org/2000/svg"><g><g><path d="m352.17 55.83a136 136 0 0 0 -232.17 96.17v208h11.98l76.02-16v-32.17a137.186 137.186 0 0 1 -16-11.69c-1.01-.84-2.01-1.71-3-2.6-21-18.82-37-44.82-37-73.54v-72l11.16.43a135.491 135.491 0 0 0 44.84 7.57 129.925 129.925 0 0 0 34.05-4.54l2.77.11c.15-.07.31-.13.46-.2 1.7-.76 3.45-1.55 5.22-2.39.28-.13.57-.26.86-.41 18.62-8.8 40.16-21.39 51-31.63.24-.22.47-.45.71-.68a94.1 94.1 0 0 0 24.47 24.71 88.251 88.251 0 0 0 13.44 7.59 81.945 81.945 0 0 0 19.02 5.99v65.45c0 30.07-17.54 57.16-40 76.14a137.186 137.186 0 0 1 -16 11.69v32.17l76.02 16h11.98v-208a135.574 135.574 0 0 0 -39.83-96.17z" fill="#ffda44"/><g><circle cx="208" cy="192" fill="#ffdaaa" r="16"/><circle cx="304" cy="192" fill="#ffdaaa" r="16"/><path d="m472 496h-432l2.75-73.63a80.021 80.021 0 0 1 60.44-56.31l28.79-6.06 76.02-16c0 4.49 1.37 9.98 3.67 16 11.2 29.56 44.33 72 44.33 72s33.13-42.44 44.33-72c2.3-6.02 3.67-11.51 3.67-16l76.02 16 28.79 6.06a80.021 80.021 0 0 1 60.44 56.31z" fill="#971051"/><g fill="#ffdaaa"><path d="m251.36 152.57c-.29.15-.58.28-.86.41l-.28-.01c.38-.13.76-.26 1.14-.4z"/><circle cx="208" cy="192" r="16"/><circle cx="304" cy="192" r="16"/></g></g><g fill="#ffdaaa"><path d="m251.36 152.57c-.29.15-.58.28-.86.41l-.28-.01c.38-.13.76-.26 1.14-.4z"/><circle cx="208" cy="192" r="16"/><path d="m245.28 155.37c-.15.07-.31.13-.46.2l-2.77-.11z"/><circle cx="304" cy="192" r="16"/><path d="m360 152v6.55a81.945 81.945 0 0 1 -19.02-5.99z"/><path d="m340.98 152.56a88.251 88.251 0 0 1 -13.44-7.59 94.1 94.1 0 0 1 -24.47-24.71c-.24.23-.47.46-.71.68a140.7 140.7 0 0 1 -51 31.63c-.29.15-.58.28-.86.41-1.77.84-3.52 1.63-5.22 2.39-.15.07-.31.13-.46.2l-2.77-.11a129.925 129.925 0 0 1 -34.05 4.54 135.491 135.491 0 0 1 -44.84-7.57l-11.16-.43v72c0 28.72 16 54.72 37 73.54.99.89 1.99 1.76 3 2.6v-60.14h128v60.14c22.46-18.98 40-46.07 40-76.14v-65.45a81.945 81.945 0 0 1 -19.02-5.99zm-132.98 55.44a16 16 0 1 1 16-16 16 16 0 0 1 -16 16zm96 0a16 16 0 1 1 16-16 16 16 0 0 1 -16 16z"/><path d="m304 311.83v32.17c0 4.49-1.37 9.98-3.67 16-11.2 29.56-44.33 72-44.33 72s-33.13-42.44-44.33-72c-2.3-6.02-3.67-11.51-3.67-16v-32.17c16.39 10.24 33.72 16.17 48 16.17s31.61-5.93 48-16.17z"/></g><path d="m320 240v60.14a137.186 137.186 0 0 1 -16 11.69c-16.39 10.24-33.72 16.17-48 16.17s-31.61-5.93-48-16.17a137.186 137.186 0 0 1 -16-11.69v-60.14z" fill="#aa6100"/></g><g><path d="m477.24 422.07a7.683 7.683 0 0 0 -.3-1.9 87.824 87.824 0 0 0 -66.48-61.94l-10.46-2.2v-204.03c0-79.4-64.6-144-144-144s-144 64.6-144 144v204.03l-10.46 2.2a87.824 87.824 0 0 0 -66.48 61.94 7.683 7.683 0 0 0 -.3 1.9l-2.75 73.63a8 8 0 0 0 7.99 8.3h432a8 8 0 0 0 7.99-8.3zm-349.24-270.07a128 128 0 0 1 256 0v200.66l-72-15.15v-21.4c30.17-20.23 56-53.95 56-92.11v-64c0-.24-.01-.48-.03-.71v-.02a8 8 0 0 0 -6.52-8.59c-20.42-3.75-39.28-16.47-51.75-34.9a8 8 0 0 0 -12.22-1.24c-24.71 24.16-56.49 37.46-89.48 37.46a126.913 126.913 0 0 1 -52.7-11.31 8.023 8.023 0 0 0 -8.98 1.65 8.118 8.118 0 0 0 -1.61 2.34 8.028 8.028 0 0 0 -.71 3.29v76.03c0 38.16 25.83 71.88 56 92.11v21.4l-72 15.15zm128 168c-16.45 0-37.82-9.13-56-23.64v-48.36h112v48.36c-18.18 14.51-39.55 23.64-56 23.64zm40 5.38v18.62c0 15.37-22.44 50.92-40 74.75-17.56-23.83-40-59.38-40-74.75v-18.62c13.85 6.81 27.82 10.62 40 10.62s26.15-3.81 40-10.62zm-136-143.94v-21.62a143.28 143.28 0 0 0 48 8.18c34.26 0 67.3-12.66 93.96-35.84 13.18 16.13 30.83 27.72 50.04 32.79v16.49l-36.12 50.56h-119.76zm24 61.12v38.66c-20.61-23.18-24-45.25-24-57.22v-15.04zm168-33.6v15.04c0 11.97-3.39 34.04-24 57.22v-38.66zm48 279.04v-32a8 8 0 0 0 -16 0v32h-256v-32a8 8 0 0 0 -16 0v32h-63.7l2.41-64.34a71.856 71.856 0 0 1 54.13-49.77l96.48-20.31c7.41 30.2 43.81 77.49 48.37 83.34a8 8 0 0 0 12.62 0c4.56-5.85 40.96-53.14 48.37-83.34l96.48 20.31a71.856 71.856 0 0 1 54.13 49.77l2.41 64.34z"/><circle cx="208" cy="192" r="16"/><circle cx="304" cy="192" r="16"/></g></g></svg>