<svg id="Capa_1" enable-background="new 0 0 512 512" height="512" viewBox="0 0 512 512" width="512" xmlns="http://www.w3.org/2000/svg"><path d="m400.833 310.206h-85.967c-4.691 0-8.493-3.803-8.493-8.493v-34.21c-17.658 12.079-37.159 18.996-50.37 18.996-13.212 0-32.712-6.917-50.371-18.996v34.21c0 4.691-3.803 8.493-8.493 8.493h-85.967c-32.778 0-59.35 26.572-59.35 59.35v134.944h408.361v-134.944c0-32.778-26.572-59.35-59.35-59.35z" fill="#fff9c1"/><path d="m405.417 310.381c9.191 10.452 14.766 24.163 14.766 39.175v77.479c0 31.737-25.728 57.465-57.465 57.465h-310.896v20h408.361v-134.944c0-31.235-24.13-56.835-54.766-59.175z" fill="#f9f48e"/><path d="m351.798 193.886h-3.062l4.627-62.828h16.622c11.688 0 21.163 9.475 21.163 21.163v2.315c0 21.732-17.618 39.35-39.35 39.35z" fill="#bec3ea"/><path d="m160.207 193.886h3.062l-4.627-62.828h-16.622c-11.688 0-21.163 9.475-21.163 21.163v2.315c0 21.732 17.618 39.35 39.35 39.35z" fill="#bec3ea"/><path d="m281.044 108.794 73.575 5.207.024-.329c4.223-57.331-41.154-106.172-98.641-106.172s-102.863 48.841-98.641 106.172l6.725 91.318c3.546 48.145 62.899 81.509 91.916 81.509s88.37-33.364 91.915-81.509l1.949-26.459h-156.211s87.389-69.737 87.389-69.737z" fill="#fff9c1"/><path d="m281.044 108.794-87.389 69.737h156.212l4.752-64.53z" fill="#bec3ea"/><path d="m313.361 111.082-4.967 67.449h41.473l4.752-64.53z" fill="#a2aae2"/><path d="m307.918 184.99c-3.546 48.145-62.899 81.509-91.915 81.509-4.36 0-9.404-.754-14.842-2.197 18.759 14.05 40.504 22.197 54.842 22.197 29.016 0 88.37-33.364 91.915-81.509l1.949-26.459h-41.473z" fill="#f9f48e"/><path d="m279.054 10.195c23.723 19.662 38.045 50.134 35.589 83.477l-1.282 17.409 41.258 2.92.024-.329c3.639-49.404-29.554-92.503-75.589-103.477z" fill="#f9f48e"/><path d="m198.132 271.388c0 41.574-.018 27.299-.002 30.373-.025.526-.46.945-.992.945h-85.967c-35.452 0-64.586 27.753-66.724 62.729-.171 2.274-.126-5.604-.126 139.065 0 4.143 3.358 7.5 7.5 7.5h408.361c4.143 0 7.5-3.357 7.5-7.5 0-199.669 0 5.146 0-134.944 0-36.861-29.988-66.85-66.85-66.85h-85.968c-.548 0-.993-.445-.993-.993v-30.325c21.91-15.983 39.55-38.961 41.539-65.967l.309-4.198c24.007-1.997 42.927-22.173 42.927-46.687v-2.314c0-15.805-12.858-28.663-28.663-28.663h-8.55c.836-11.359.572-7.763.665-9.027 4.609-62.201-44.532-114.532-106.096-114.532-55.638 0-102.174 43.042-106.14 98.991-.875 6.245.368 19.975.707 24.567h-8.549c-15.805 0-28.663 12.858-28.663 28.663v2.314c0 24.514 18.926 44.689 42.932 46.687l.304 4.198c1.989 27.007 19.629 49.985 41.539 65.968zm140.967 225.612-31.417-31.417h73.612v31.417zm-162.036-179.294 66.442 53.254-15.223 15.223-68.477-68.477zm33.521-7.341 77.799 15.717-34.207 34.207-53.594-42.956c4.179-.921 7.75-3.48 10.002-6.968zm107.389 7.341h43.38l-100.774 100.774-21.69-21.69c74.011-74.01 78.834-78.834 79.084-79.084zm134.71 85.408h-7.5c-4.143 0-7.5 3.357-7.5 7.5s3.357 7.5 7.5 7.5h7.5v23.982l-56.389-16.371v-7.611h13.889c4.143 0 7.5-3.357 7.5-7.5s-3.357-7.5-7.5-7.5h-113.023l26.317-26.317 128.643-14.894c.771 5.193.563 5.041.563 41.211zm-170.523 15h99.135v32.469h-88.612l-21.496-21.496zm114.134 23.23 56.389 16.371v9.868h-56.389zm51.375-94.025-107.115 12.401 42.014-42.014h18.266c20.636 0 38.495 12.119 46.835 29.613zm-191.39-68.321c-16.25.129-38.253-11.303-51.25-21.171-2.056-1.561-4.365-3.428-6.786-5.584l106.112 7.51c-12.627 8.98-32.652 19.098-48.076 19.245zm-83.645-210.263 171.217 12.118c2.339 8.075 3.549 16.508 3.568 25.121-224.159-15.865 49.394 3.494-181.903-12.874 1.215-8.456 3.609-16.638 7.118-24.365zm15.32-23.359h136.096c5.517 6.142 10.107 12.862 13.715 20.009l-156.884-11.104c2.155-3.083 4.514-6.056 7.073-8.905zm-16.282 160.292 24.608-19.637h145.514c-1.382 18.769-1.371 20.473-2.209 24.806h-167.164c-.327-1.689-.58-3.412-.749-5.169zm171.227-34.637h-65.802v-16.437h33.181c4.143 0 7.5-3.357 7.5-7.5s-3.357-7.5-7.5-7.5h-35.094c-7.216 0-13.087 5.871-13.087 13.088v18.349h-47.02l19.569-15.616c3.237-2.584 3.768-7.303 1.184-10.54s-7.301-3.768-10.541-1.185l-54.967 43.863-1.897-25.751 61.534-49.104 31.385 2.222-8.463 6.753c-3.237 2.584-3.768 7.303-1.184 10.54 2.588 3.243 7.31 3.764 10.54 1.185l21.196-16.915 63.153 4.469c-6.807 92.436-1.265 17.192-3.687 50.079zm-135.028-59.896-40.779 32.542c-2.46-33.402-2.418-32.184-2.487-35.604zm126.626 114.702c-3.797 7.772-8.939 14.487-14.145 20.009l-136.665-9.672c-2.271-3.198-4.376-6.648-6.178-10.337zm35.488-87.278c7.534 0 13.663 6.129 13.663 13.663v2.314c0 15.847-11.634 29.028-26.81 31.451 5.902-80.157 2.231-30.295 3.493-47.428zm-63.142-108.183h-101.682c30.452-20.504 71.172-20.545 101.682 0zm-178.486 124.16v-2.314c0-7.534 6.129-13.663 13.663-13.663h9.654c.52 7.057 3.066 41.629 3.493 47.428-15.176-2.423-26.81-15.604-26.81-31.451zm126.487 139.449c14.531.297 31.165-6.051 44.029-13.091v20.819c0 3.872 1.383 7.427 3.682 10.197l-1.44 1.44-87.982-17.774v-14.683c14.528 7.951 29.626 12.797 41.711 13.092zm-116.253 23.721 179.293 179.294h-42.909c-12.928-12.928-152.005-152.004-177.468-177.467 4.355-1.191 8.937-1.827 13.664-1.827zm.071 64.195 22.265 22.265h-101.605v-29.926zm-22.952 58.104-56.388-8.521v-12.318h56.388zm-56.388 6.649 56.388 8.521v10.629h-56.388zm71.388 18.929h26.378c4.142 0 7.5-3.357 7.5-7.5s-3.358-7.5-7.5-7.5h-26.378c0-14.548 0-10.107 0-31.417h45.216l31.417 31.417h-11.96c-4.142 0-7.5 3.357-7.5 7.5s3.358 7.5 7.5 7.5h26.96l31.417 31.417h-123.05zm-47.828-139.461 39.1 39.1-61.635-5.952c2.794-13.829 11.108-25.68 22.535-33.148zm-23.56 154.683h56.388v16.195h-56.388zm336.972 16.195v-14.417h56.389v14.417z"/></svg>