<svg height="512" viewBox="0 0 512 512" width="512" xmlns="http://www.w3.org/2000/svg"><g><g><g><path d="m360 176v80a72 72 0 0 1 -40 64.51v-75.51l-64-21-64 21v75.51a72 72 0 0 1 -40-64.51v-80z" fill="#ffdaaa"/><path d="m496 496h-480l18.75-73.63a80.021 80.021 0 0 1 60.44-56.31l94.39-19.87c-.31 20.44 1.91 65.55 26.42 77.81 0 0 22.57-30 39.72-46.09l-3.28-2.09c2.24.15 3.56.18 3.56.18s1.2-.02 3.25-.16l-3.25 2.07c17.15 16.09 40.72 46.09 40.72 46.09 24.52-12.26 26.14-57.41 25.56-77.84l94.53 19.9a80.021 80.021 0 0 1 60.44 56.31z" fill="#5f4d37"/><path d="m152 176v72h-12a20 20 0 0 1 -20-20v-52z" fill="#ffdaaa"/><path d="m360 176v72h12a20 20 0 0 0 20-20v-51z" fill="#ffdaaa"/><path d="m112 112h288v64h-288z" fill="#e0e0e2"/><path d="m376 112h-240l30.187-71.24a40 40 0 0 1 37.379-25.76h100.545a40 40 0 0 1 39 31.087z" fill="#aa6100"/><path d="m255.72 377.91c-17.15 16.09-39.72 46.09-39.72 46.09-24.51-12.26-26.73-57.37-26.42-77.81l10.42-2.19c0 26.17 40.09 30.96 52.43 31.82h.01z" fill="#aa6100"/><path d="m202.54 344h-2.54l-10.42 2.19 10.42-3.81z" fill="#ffdaaa"/><path d="m296.72 424s-23.57-30-40.72-46.09l3.25-2.07c11.94-.79 52.75-5.44 52.75-31.84l10.28 2.16c.58 20.43-1.04 65.58-25.56 77.84z" fill="#aa6100"/><g fill="#ffdaaa"><path d="m322.28 346.16-10.28-2.16h-2.82l2.82-1.8z"/><circle cx="232" cy="440" r="8"/><circle cx="232" cy="472" r="8"/><circle cx="208" cy="192" r="16"/><circle cx="304" cy="192" r="16"/><path d="m312 342.2-2.82 1.8h2.82c0 26.4-40.81 31.05-52.75 31.84-2.05.14-3.25.16-3.25.16s-1.32-.03-3.56-.18h-.01c-12.34-.86-52.43-5.65-52.43-31.82h2.54l-2.54-1.62v-18.47a71.912 71.912 0 0 0 24 4.09h64a71.912 71.912 0 0 0 24-4.09z"/></g></g><g><path d="m320 245v75.51c-.24.12-.48.24-.73.36a73.764 73.764 0 0 1 -7.27 3.04 71.912 71.912 0 0 1 -24 4.09h-64a71.912 71.912 0 0 1 -24-4.09 73.764 73.764 0 0 1 -7.27-3.04c-.25-.12-.49-.24-.73-.36v-75.51l64-21z" fill="#00e7f0"/><path d="m192 320.51c.24.12.48.24.73.36h-.73z" fill="#ffdaaa"/><path d="m320 320.51v.36h-.73c.25-.12.49-.24.73-.36z" fill="#ffdaaa"/><g fill="none"><path d="m152 184 40 61"/><path d="m320 245 40-61"/></g></g></g><g><g><path d="m312 352a8 8 0 0 1 -8-8v-15.49a8 8 0 0 1 16 0v15.49a8 8 0 0 1 -8 8z"/><path d="m200 352a8 8 0 0 1 -8-8v-15.49a8 8 0 0 1 16 0v15.49a8 8 0 0 1 -8 8z"/><path d="m288 336h-64a80.091 80.091 0 0 1 -80-80v-80a8 8 0 0 1 16 0v80a64.072 64.072 0 0 0 64 64h64a64.072 64.072 0 0 0 64-64v-80a8 8 0 0 1 16 0v80a80.091 80.091 0 0 1 -80 80z"/><path d="m496 504h-480a8 8 0 0 1 -7.753-9.974l18.753-73.626c.02-.075.04-.15.061-.224a87.817 87.817 0 0 1 66.482-61.94l104.813-22.061a8 8 0 0 1 3.294 15.658l-104.812 22.056a71.854 71.854 0 0 0 -54.365 50.571l-16.18 63.54h459.414l-16.18-63.54a71.856 71.856 0 0 0 -54.368-50.572l-104.806-22.059a8 8 0 0 1 3.294-15.658l104.81 22.06a87.819 87.819 0 0 1 66.485 61.941c.021.074.041.149.061.224l18.75 73.63a8 8 0 0 1 -7.753 9.974z"/><path d="m104 504a8 8 0 0 1 -8-8v-40a8 8 0 0 1 16 0v40a8 8 0 0 1 -8 8z"/><path d="m408 504a8 8 0 0 1 -8-8v-40a8 8 0 0 1 16 0v40a8 8 0 0 1 -8 8z"/><path d="m152 256h-12a28.032 28.032 0 0 1 -28-28v-52a8 8 0 0 1 16 0v52a12.013 12.013 0 0 0 12 12h4v-64a8 8 0 0 1 16 0v72a8 8 0 0 1 -8 8z"/><path d="m372 256h-12a8 8 0 0 1 -8-8v-72a8 8 0 0 1 16 0v64h4a12.013 12.013 0 0 0 12-12v-51a8 8 0 0 1 16 0v51a28.032 28.032 0 0 1 -28 28z"/><path d="m400 184h-288a8 8 0 0 1 -8-8v-64a8 8 0 0 1 8-8h288a8 8 0 0 1 8 8v64a8 8 0 0 1 -8 8zm-280-16h272v-48h-272z"/><path d="m376 120h-240a8 8 0 0 1 -7.366-11.121l30.132-71.111a48.267 48.267 0 0 1 44.8-30.768h100.545a47.758 47.758 0 0 1 46.561 36.333l32.486 65.1a8 8 0 0 1 -7.158 11.567zm-227.922-16h214.988l-27.119-54.341a7.972 7.972 0 0 1 -.64-1.789 31.843 31.843 0 0 0 -31.196-24.87h-100.545a32.177 32.177 0 0 0 -29.9 20.608c-.035.092-.071.183-.109.273z"/><path d="m256 504a8 8 0 0 1 -8-8v-120a8 8 0 0 1 16 0v120a8 8 0 0 1 -8 8z"/><path d="m216 432a7.975 7.975 0 0 1 -3.574-.845c-36.548-18.274-30.646-77.495-30.376-80.007a8 8 0 0 1 15.909 1.7 121.855 121.855 0 0 0 1 28.24c1.716 10.751 5.754 24.281 15.2 32.193 7.572-9.7 23.151-29.059 36.092-41.2a8 8 0 1 1 10.947 11.668c-16.439 15.424-38.579 44.771-38.8 45.066a8 8 0 0 1 -6.398 3.185z"/><path d="m296.724 432a8 8 0 0 1 -6.3-3.058c-.232-.3-23.4-29.715-39.9-45.2a8 8 0 0 1 10.948-11.669c12.988 12.185 29.2 31.676 36.979 41.286 20.11-16.782 15.387-59.9 15.328-60.37a8 8 0 0 1 15.877-1.984c.315 2.515 7.28 61.827-29.36 80.147a7.975 7.975 0 0 1 -3.572.848z"/><circle cx="232" cy="440" r="8"/><circle cx="232" cy="472" r="8"/><circle cx="208" cy="192" r="16"/><circle cx="304" cy="192" r="16"/><path d="m256 384h-.152c-2.608-.05-63.848-1.661-63.848-40a8 8 0 0 1 16 0c0 8.805 7.405 15.483 22.01 19.851a112.934 112.934 0 0 0 25.978 4.149c2.888-.109 48.012-2.238 48.012-24a8 8 0 0 1 16 0c0 38.338-61.24 39.949-63.848 40z"/></g><g><path d="m320 328.87a8 8 0 0 1 -8-8v-70.076l-56-18.375-56 18.375v70.076a8 8 0 0 1 -16 0v-75.87a8 8 0 0 1 5.506-7.6l64-21a7.994 7.994 0 0 1 4.988 0l64 21a8 8 0 0 1 5.506 7.6v75.87a8 8 0 0 1 -8 8z"/><path d="m164 178.027h16.001v72.945h-16.001z" transform="matrix(.836 -.548 .548 .836 -89.457 129.443)"/><path d="m303.527 206.5h72.945v16.001h-72.945z" transform="matrix(.548 -.836 .836 .548 -25.808 381.218)"/></g></g></g></svg>